<svg width="163" height="164" fill="none" xmlns="http://www.w3.org/2000/svg"><path fill-rule="evenodd" clip-rule="evenodd" d="M114.578 78.875c.947.63 1.894 1.364 2.737 2.098 7.474 6.189 10.738 12.168 9.264 16.888-1.685 4.615-7.896 7.342-17.686 7.552h-1.264c-4.526 0-9.474-.525-14.738-1.469-.737 4.301-1.579 8.287-2.632 11.748-1.895 6.398-5.158 13.951-9.79 13.951h-.105c-2.738-.105-4.843-2.833-6.422-6.294-.316.105-.632.105-.948.105-2.21 0-4-1.783-4-3.986 0-1.678.948-3.042 2.421-3.671-.052-.105-.079-.236-.105-.367-.026-.131-.053-.262-.105-.367-.527-2.203-.948-4.616-1.369-7.133-6.632 2.308-12.633 3.462-17.475 3.462-5.37 0-9.37-1.469-11.264-4.511-2.527-4.195-.632-10.699 5.368-18.356.369-.42.737-.865 1.106-1.31.368-.447.737-.892 1.105-1.312-9.053-6.608-13.79-13.53-11.896-18.985 1.474-4.196 6.527-6.713 13.896-7.448.316-2.097 2.106-3.67 4.317-3.67 2.21 0 3.895 1.573 4.316 3.566 3.474.105 7.264.629 11.159 1.363.737-4.195 1.579-8.181 2.632-11.643 1.895-6.398 5.158-13.95 9.79-13.95h.105c4.738.105 7.58 7.971 9.054 14.684.526 2.203.947 4.616 1.368 7.133 3.37-1.259 6.633-2.098 9.791-2.727 9.58-1.888 16.212-.524 18.844 3.671 1.474 2.203 1.474 5.14.421 8.496 1.158.734 1.895 1.993 1.895 3.357a3.879 3.879 0 01-3.895 3.88c-.526 0-1.053-.104-1.474-.314-.324.416-.628.831-.939 1.256-.395.54-.8 1.094-1.272 1.681-.631.84-1.368 1.783-2.21 2.622zm-3.685-23.915c-2.211 0-4.632.21-7.369.734-3.053.525-6.422 1.469-9.896 2.937.316 3.042.632 6.189.842 9.545 7.054 2.937 13.37 6.294 18.634 9.965.842-.944 1.579-1.783 2.316-2.727.311-.443.622-.867.925-1.28.415-.566.815-1.112 1.18-1.657-.631-.734-1.053-1.678-1.053-2.727a3.88 3.88 0 013.896-3.881h.526c.947-2.832.947-5.35-.211-7.133-1.473-2.517-4.947-3.776-9.79-3.776zm1.158 24.125c-4.948-3.356-10.843-6.608-17.475-9.335.21 4.195.315 8.496.105 13.006-.105 3.776-.421 7.552-.737 11.224 7.053-4.72 13.264-9.755 18.107-14.895zM92.786 67.232c-.105-2.832-.421-5.664-.737-8.286a191.476 191.476 0 00-10.422 4.406c.947.314 1.921.629 2.895.944.974.314 1.947.629 2.895.944 1.895.629 3.58 1.258 5.369 1.992zM82.89 36.71c-2.737 0-5.79 4.825-8.211 12.797-1.053 3.461-1.895 7.342-2.632 11.433l.712.154c2.203.475 4.483.967 6.762 1.63 4.106-2.099 8.317-3.987 12.317-5.455-.42-2.623-.842-5.035-1.368-7.343-1.895-8.181-4.632-13.11-7.475-13.216h-.105zm-7.53 26.684c-1.2-.29-2.383-.575-3.524-.776-.21 1.679-.42 3.252-.736 4.93a9.25 9.25 0 01.526-.315c.184-.105.368-.21.526-.314.487-.286.967-.571 1.443-.855 1.272-.758 2.519-1.5 3.82-2.187-.686-.152-1.373-.318-2.056-.483zM47.728 89.47c-5.58 6.923-7.475 13.007-5.264 16.573 3.158 5.14 14.001 4.825 27.16.105-.315-2.937-.631-6.084-.841-9.44-7.264-3.042-13.58-6.399-18.74-9.965-.841.944-1.578 1.783-2.315 2.727zm3.474-3.985c4.842 3.356 10.843 6.608 17.475 9.44-.21-4.196-.316-8.497-.105-13.007.105-3.776.421-7.552.737-11.223-7.159 4.615-13.37 9.65-18.107 14.79zm-1.369-.84c5.159-5.454 11.896-11.013 19.581-15.943.138-.964.256-1.908.372-2.832.148-1.187.293-2.34.47-3.462a89.056 89.056 0 00-10.948-1.363c-.421 1.993-2.21 3.461-4.316 3.461-2 0-3.79-1.468-4.211-3.356-6.633.734-11.16 2.832-12.423 6.293-1.684 4.615 3.053 11.014 11.475 17.202zm20.529 12.692c.105 2.937.42 5.664.737 8.287a67.115 67.115 0 0010.316-4.511c-1.895-.524-3.79-1.154-5.684-1.783-1.895-.63-3.685-1.259-5.37-1.993zm10 30.628c2.738 0 5.79-4.825 8.212-12.796 1.053-3.462 1.895-7.343 2.632-11.538-2.527-.525-4.948-1.049-7.475-1.784-4.21 2.203-8.422 4.091-12.317 5.455.421 2.622.842 5.035 1.369 7.342.052.157.079.289.105.42.026.131.053.262.105.419 2.211.105 3.896 1.783 3.896 3.986 0 1.259-.632 2.413-1.58 3.147 1.474 3.356 3.264 5.349 4.948 5.349h.106zm5.475-27.166c1.895.419 3.79.839 5.58 1.258l.073-.555c.188-1.41.384-2.892.663-4.375-.158.105-.342.21-.526.315a9.25 9.25 0 00-.526.315H91.1c-1.79 1.049-3.579 2.098-5.263 3.042zm5.369-5.14c.342-.21.684-.42 1.053-.63.42-3.88.736-8.076.947-12.377.21-4.72.105-9.23-.105-13.635-1.895-.735-3.895-1.469-5.896-2.203l-1.082-.361c-2.14-.715-4.213-1.408-6.287-1.947a106.56 106.56 0 00-6.632 3.776c-.368.21-.71.42-1.053.63-.342.21-.684.42-1.052.629-.422 3.986-.737 8.077-.843 12.377-.21 4.72-.105 9.23.106 13.636a359.01 359.01 0 005.894 2.203h.001c2.421.839 4.843 1.678 7.264 2.307a106.354 106.354 0 006.632-3.776c.368-.21.71-.42 1.053-.63zm17.475 8.181c8.948-.209 14.844-2.517 16.212-6.503 1.369-3.986-1.789-9.44-8.632-15l-2.842-2.202c-5.054 5.454-11.896 11.014-19.581 15.943-.21 2.098-.527 4.196-.843 6.294 5.58 1.049 10.949 1.573 15.686 1.468zM90.365 81.393c0 4.344-3.535 7.867-7.895 7.867-4.36 0-7.896-3.523-7.896-7.867 0-4.345 3.535-7.867 7.896-7.867 4.36 0 7.895 3.522 7.895 7.867z" fill="#006FB7"/><path d="M117.315 80.973l-.409.469.006.005.006.005.397-.479zm-2.737-2.098l-.44-.44-.539.537.634.422.345-.519zm12.001 18.986l.584.213.005-.014.005-.014-.594-.185zm-17.686 7.552v.622h.013l-.013-.622zm-16.002-1.469l.11-.612-.617-.111-.106.618.613.105zm-2.632 11.748l-.595-.181-.001.004.596.177zm-9.895 13.951l-.024.621.012.001h.012v-.622zm-6.422-6.294l.566-.258-.232-.508-.53.176.196.59zm-2.527-7.552l.245.572.608-.26-.297-.591-.556.279zm-.21-.734l-.605.144.017.07.032.065.556-.279zm-1.369-7.133l.614-.103-.122-.727-.696.243.204.587zm-28.74-1.049l-.532.321.005.008.527-.329zm5.37-18.356l-.468-.41-.011.013-.011.014.49.383zm1.105-1.31l-.48-.397.48.396zm1.105-1.312l.468.41.449-.511-.55-.401-.367.502zM36.78 66.918l-.587-.206v.002l.587.204zm13.896-7.448l.062.62.481-.049.072-.478-.615-.093zm8.633-.104l-.609.128.101.479.49.014.018-.621zm11.159 1.363l-.115.611.619.117.109-.62-.613-.108zM73.1 49.086l.595.181.001-.004-.596-.177zm9.895-13.95l.014-.622h-.014v.622zM92.05 49.82l-.608.134.003.011.605-.145zm1.368 7.133l-.613.103.124.744.707-.264-.218-.583zm9.791-2.727l-.12-.61h-.002l.122.61zm18.844 3.671l-.527.33.005.009.005.007.517-.346zm.421 8.496l-.593-.186-.143.456.403.256.333-.526zm-3.474 6.923l.277-.557-.455-.226-.312.4.49.383zm-.939 1.256l-.502-.367.502.367zm-1.272 1.681l-.485-.39-.006.008-.006.008.497.374zm-13.264-20.559l.105.614.012-.003-.117-.61zm-9.896 2.937l-.242-.573-.424.18.047.458.62-.065zm.842 9.545l-.62.04.024.386.357.149.24-.575zm18.634 9.965l-.356.51.453.316.367-.412-.464-.414zm2.316-2.727l.49.383.01-.013.009-.013-.509-.357zm.925-1.28l-.501-.368.501.367zm1.18-1.657l.517.346.263-.393-.308-.359-.472.406zm3.369-6.608v.622h.448l.142-.425-.59-.197zm-.211-7.133l-.536.315.007.012.008.012.521-.339zM94.575 69.75l.237-.576-.907-.373.05.98.62-.031zm17.476 9.335l.453.427.5-.532-.604-.41-.349.515zm-17.37 3.671l-.622-.029v.012l.622.017zm-.737 11.224l-.62-.054-.11 1.291 1.076-.72-.346-.517zm-1.895-35.034l.618-.074-.096-.794-.746.288.224.58zm.737 8.286l-.236.576.893.367-.035-.966-.622.023zm-11.16-3.88l-.257-.567-1.442.657 1.504.5.196-.59zm2.896.944l.191-.592-.191.592zm2.895.944l-.196.59.196-.59zM74.679 49.506l.595.18-.595-.18zm-2.632 11.433l-.612-.11-.107.59.587.128.132-.608zm.712.154l-.13.608.13-.608zm6.762 1.63l-.173.596.237.07.22-.113-.284-.554zm12.317-5.455l.215.584.48-.177-.08-.506-.615.099zm-1.368-7.343l.606-.138v-.002l-.606.14zM82.995 36.71l.023-.622h-.023v.622zM71.836 62.617l.108-.612-.644-.114-.08.649.616.077zm3.523.776l-.145.605.145-.605zm-4.26 4.154l-.61-.115-.273 1.45 1.228-.817-.344-.518zm.527-.315l.308.541-.308-.54zm.526-.314l-.314-.537-.015.009-.015.01.344.518zm1.443-.855l.318.535-.318-.535zm3.82-2.187l.291.55 1.5-.79-1.656-.367-.134.607zm-34.95 42.166l.53-.326-.001-.002-.529.328zm5.264-16.573l.484.39.006-.007-.49-.383zm21.897 16.678l.21.585.46-.165-.052-.487-.618.067zm-.843-9.44l.621-.04-.024-.385-.356-.149-.24.574zm-18.738-9.965l.353-.511-.452-.313-.365.41.464.414zm18.633 8.182l-.244.572.915.39-.05-.993-.62.03zm-17.475-9.44l-.458-.422-.484.526.587.407.355-.511zm17.37-3.567l.621.03v-.013l-.621-.017zm.737-11.223l.62.053.108-1.263-1.065.687.337.523zm.105-1.993l.336.524.24-.154.04-.282-.616-.088zm-19.58 15.943l-.37.502.444.325.377-.4-.452-.427zM69.786 65.87l-.617-.077.617.077zm.47-3.462l.615.098.094-.597-.593-.112-.116.611zM59.31 61.044l.038-.621-.536-.033-.11.525.608.129zm-8.527.105l.607-.136-.122-.544-.554.062.069.618zm-12.423 6.293l-.584-.213.584.213zm32.74 38.181l-.617.074.092.763.727-.249-.201-.588zm-.736-8.287l.248-.57-.906-.395.036.987.622-.022zm11.053 3.776l.297.547 1.353-.736-1.484-.41-.166.599zm-5.684-1.783l.196-.59-.197.59zm12.843 15.839l-.595-.181.595.181zm2.632-11.538l.613.107.104-.594-.59-.122-.127.609zm-7.475-1.784l.174-.597-.24-.07-.222.116.288.551zm-12.317 5.455l-.205-.587-.491.172.082.513.614-.098zm1.369 7.342l-.607.138.007.03.01.029.59-.197zm.21.839l-.59.198.136.403.425.021.03-.622zm2.317 7.133l-.382-.492-.383.297.195.445.57-.25zm16.106-20.559l-.142.606.668.156.09-.679-.616-.083zm-5.58-1.258l-.303-.543-1.423.797 1.592.353.135-.607zm5.654.703l-.616-.082.616.082zm.663-4.375l.612.115.272-1.449-1.228.816.344.518zm-.526.315l.308.54-.308-.54zm-.526.315l.314.537.015-.01.015-.01-.344-.517zm-.001 0l-.314-.537.314.537zm1.159-2.728l.307.541.277-.157.034-.316-.618-.068zm-1.053.63l-.325-.53.325.53zm2-13.007l.621.03v-.002l-.621-.028zm-.105-13.635l.621-.03-.02-.404-.377-.146-.224.58zm-5.896-2.203l.215-.584-.01-.003-.008-.004-.197.59zm-1.082-.361l-.197.59.197-.59zm-6.287-1.947l.157-.602-.232-.06-.213.11.288.552zm-6.632 3.776l.308.54.01-.004.008-.006-.326-.53zm-1.053.63l-.325-.53.325.53zm-1.052.629l-.308-.54-.278.157-.033.318.619.065zm-.843 12.377l.622.028v-.013l-.622-.015zm.106 13.636l-.622.03.02.404.377.146.225-.58zm5.894 2.203l-.214.583.214-.584zm0 0l-.213.584.009.003.008.003.197-.59zm.001 0l.204-.588-.007-.002-.197.59zm7.264 2.307l-.157.602.232.061.213-.111-.288-.552zm6.632-3.776l-.308-.54-.01.005-.008.006.326.53zm34.74 1.05l-.588-.203.588.202zm-16.212 6.502l.014.622h.001l-.015-.622zm7.58-21.502l.392-.483-.005-.005-.006-.004-.381.492zm-2.842-2.203l.381-.492-.451-.349-.387.418.457.423zM93.839 96.077l-.336-.523-.253.162-.03.3.619.061zm-.843 6.294l-.615-.093-.089.593.59.111.114-.611zm24.727-21.867a27.567 27.567 0 00-2.801-2.147l-.689 1.037c.923.612 1.849 1.33 2.673 2.048l.817-.938zm9.45 17.542c.802-2.571.293-5.424-1.325-8.377-1.617-2.951-4.364-6.051-8.137-9.175l-.793.958c3.702 3.065 6.324 6.049 7.839 8.814 1.514 2.763 1.899 5.26 1.228 7.41l1.188.37zm-18.267 7.989c4.942-.106 9.029-.847 12.115-2.175 3.089-1.329 5.223-3.269 6.142-5.786l-1.169-.427c-.765 2.098-2.579 3.829-5.464 5.07-2.889 1.243-6.802 1.97-11.651 2.074l.027 1.244zm-1.277 0h1.264v-1.244h-1.264v1.244zm-14.848-1.478c5.29.948 10.275 1.478 14.848 1.478v-1.244c-4.48 0-9.39-.52-14.628-1.459l-.22 1.225zm-1.927 11.316c1.064-3.497 1.911-7.511 2.65-11.824l-1.226-.21c-.735 4.289-1.572 8.246-2.614 11.672l1.19.362zM80.47 130.265c2.672 0 4.807-2.164 6.453-4.876 1.673-2.755 2.98-6.302 3.934-9.52l-1.193-.354c-.942 3.18-2.213 6.609-3.804 9.229-1.618 2.664-3.43 4.276-5.39 4.276v1.245zm-.105 0h.105v-1.245h-.105v1.245zm-6.988-6.658c.804 1.762 1.759 3.378 2.89 4.575 1.135 1.2 2.489 2.021 4.074 2.082l.047-1.243c-1.152-.044-2.22-.639-3.216-1.694-1-1.058-1.888-2.536-2.663-4.236l-1.132.516zm-.382.469c.302 0 .718.005 1.144-.137l-.392-1.18c-.206.068-.422.073-.752.073v1.244zm-4.622-4.608a4.613 4.613 0 004.622 4.608v-1.244a3.37 3.37 0 01-3.378-3.364h-1.244zm2.799-4.243c-1.697.725-2.799 2.31-2.799 4.243h1.244c0-1.423.793-2.565 2.044-3.099l-.489-1.144zm-.47.327c.021.109.06.33.158.524l1.112-.558s-.006-.013-.017-.054a2.519 2.519 0 01-.034-.157l-1.22.245zm-.052-.21c0-.001.006.013.017.053.01.041.02.088.034.157l1.22-.245c-.022-.109-.062-.329-.16-.523l-1.111.558zm-1.426-7.309c.42 2.516.845 4.948 1.377 7.174l1.21-.289c-.521-2.179-.939-4.572-1.36-7.091l-1.227.206zm-16.862 3.981c4.933 0 11.005-1.174 17.68-3.496l-.41-1.175c-6.589 2.292-12.518 3.426-17.27 3.426v1.245zm-11.792-4.804c2.067 3.319 6.35 4.804 11.792 4.804v-1.245c-5.296 0-9.014-1.452-10.736-4.217l-1.056.658zm5.407-19.068c-3.029 3.864-5.052 7.475-5.99 10.685-.939 3.213-.804 6.081.578 8.375l1.065-.642c-1.145-1.902-1.326-4.383-.449-7.384.878-3.005 2.803-6.474 5.775-10.267l-.98-.767zm1.115-1.324c-.37.447-.732.886-1.093 1.297l.935.82c.376-.427.75-.88 1.117-1.325l-.959-.792zm1.118-1.325c-.376.427-.75.88-1.118 1.325l.96.793c.369-.448.731-.886 1.093-1.297l-.935-.821zm-12.016-18.78c-1.035 2.978-.228 6.277 1.906 9.6 2.136 3.328 5.65 6.763 10.21 10.093l.734-1.005c-4.492-3.28-7.875-6.61-9.897-9.76-2.024-3.152-2.639-6.043-1.778-8.52l-1.175-.407zm14.422-7.861c-7.407.738-12.817 3.292-14.422 7.86l1.174.412c1.343-3.824 6.04-6.304 13.371-7.034l-.123-1.239zm4.378-3.675c-2.518 0-4.57 1.798-4.932 4.2l1.23.186c.27-1.792 1.798-3.142 3.702-3.142v-1.244zm4.924 4.06c-.475-2.252-2.391-4.06-4.924-4.06v1.244c1.888 0 3.34 1.34 3.707 3.073l1.217-.257zm10.666.88c-3.911-.736-7.736-1.267-11.255-1.373l-.038 1.243c3.429.104 7.184.622 11.063 1.353l.23-1.222zm1.922-11.212c-1.064 3.497-1.911 7.51-2.65 11.717l1.226.215c.735-4.186 1.572-8.143 2.614-11.57l-1.19-.362zM82.89 34.514c-2.672 0-4.807 2.163-6.453 4.875-1.673 2.755-2.98 6.302-3.934 9.52l1.193.354c.942-3.18 2.213-6.608 3.804-9.228 1.618-2.665 3.43-4.277 5.39-4.277v-1.244zm.105 0h-.105v1.244h.105v-1.244zm9.662 15.173c-.742-3.377-1.835-7.085-3.36-9.977-1.502-2.846-3.55-5.136-6.288-5.196l-.027 1.244c1.999.044 3.741 1.74 5.214 4.532 1.448 2.747 2.513 6.329 3.245 9.664l1.216-.267zm1.374 7.163c-.42-2.516-.845-4.948-1.377-7.174l-1.21.29c.52 2.179.939 4.572 1.36 7.09l1.227-.206zm9.055-3.234c-3.181.634-6.479 1.481-9.886 2.754l.435 1.166c3.33-1.244 6.56-2.075 9.695-2.7l-.244-1.22zm19.493 3.95c-1.434-2.285-3.927-3.745-7.223-4.396-3.291-.65-7.432-.508-12.268.446l.24 1.22c4.743-.934 8.709-1.054 11.787-.446 3.073.608 5.212 1.928 6.41 3.838l1.054-.661zm.488 9.013c1.076-3.433 1.129-6.596-.498-9.028l-1.034.692c1.321 1.974 1.373 4.684.345 7.964l1.187.373zm1.923 3.17c0-1.59-.858-3.04-2.184-3.881l-.666 1.05c.991.629 1.606 1.696 1.606 2.832h1.244zm-4.517 4.504a4.5 4.5 0 004.517-4.503h-1.244a3.257 3.257 0 01-3.273 3.259v1.244zm-1.751-.38c.525.261 1.15.38 1.751.38v-1.244c-.452 0-.879-.092-1.197-.25l-.554 1.114zm-.16 1.066c.311-.425.61-.833.927-1.24l-.98-.766c-.332.425-.641.848-.951 1.272l1.004.734zm-1.289 1.704c.482-.6.895-1.165 1.289-1.704l-1.004-.734c-.396.54-.793 1.084-1.255 1.659l.97.778zm-2.256 2.673c.875-.872 1.634-1.846 2.268-2.689l-.994-.748c-.629.835-1.344 1.75-2.153 2.556l.879.881zm-11.376-23.01c2.7-.518 5.082-.724 7.252-.724v-1.244c-2.251 0-4.712.214-7.486.745l.234 1.222zm-9.77 2.898c3.43-1.45 6.752-2.38 9.758-2.897l-.211-1.226c-3.099.533-6.514 1.49-10.032 2.977l.484 1.146zm1.22 8.934c-.211-3.37-.528-6.528-.844-9.57l-1.238.128c.316 3.04.63 6.177.84 9.52l1.242-.078zm18.369 9.493c-5.308-3.702-11.665-7.079-18.75-10.029l-.479 1.149c7.022 2.923 13.297 6.26 18.517 9.9l.712-1.02zm1.469-2.6c-.723.927-1.448 1.753-2.289 2.696l.928.828c.843-.945 1.592-1.797 2.342-2.758l-.981-.766zm.915-1.266c-.303.413-.618.842-.933 1.291l1.018.716c.307-.437.614-.857.918-1.27l-1.003-.736zm1.164-1.634c-.356.532-.748 1.067-1.164 1.635l1.003.735c.413-.563.822-1.12 1.195-1.678l-1.034-.692zm-1.158-2.381c0 1.22.491 2.304 1.204 3.133l.943-.812c-.551-.64-.902-1.444-.902-2.321h-1.245zm4.518-4.503a4.502 4.502 0 00-4.518 4.503h1.245a3.257 3.257 0 013.273-3.26v-1.243zm.526 0h-.526v1.244h.526v-1.244zm-.732-6.172c1.008 1.552 1.063 3.843.142 6.596l1.18.395c.974-2.91 1.029-5.654-.279-7.669l-1.043.678zm-9.269-3.493c4.793 0 7.957 1.254 9.254 3.469l1.073-.629c-1.651-2.82-5.435-4.084-10.327-4.084v1.244zM94.339 70.325c6.592 2.71 12.45 5.942 17.363 9.275l.698-1.03c-4.982-3.38-10.915-6.652-17.588-9.395l-.473 1.15zm.963 12.46c.212-4.538.106-8.86-.105-13.066l-1.243.062c.21 4.185.315 8.464.105 12.946l1.243.058zm-.738 11.248c.315-3.67.633-7.463.739-11.26l-1.244-.034c-.105 3.755-.419 7.515-.735 11.187l1.24.107zm17.034-15.374c-4.802 5.096-10.974 10.102-18 14.804l.692 1.034c7.08-4.739 13.331-9.803 18.214-14.985l-.906-.853zM91.431 59.02c.316 2.621.629 5.431.733 8.235l1.243-.046c-.106-2.86-.424-5.714-.74-8.337l-1.236.148zm-9.546 4.898a191.04 191.04 0 0110.388-4.392l-.448-1.16a192.155 192.155 0 00-10.456 4.42l.516 1.132zm2.828-.214c-.974-.315-1.945-.63-2.89-.943l-.392 1.18c.95.316 1.926.632 2.9.946l.382-1.183zm2.9.945c-.95-.316-1.927-.63-2.9-.945l-.382 1.183c.974.315 1.945.63 2.89.943l.392-1.18zm5.409 2.008a81.673 81.673 0 00-5.409-2.008l-.392 1.18a80.422 80.422 0 015.329 1.979l.472-1.151zm-17.748-16.97c1.202-3.958 2.55-7.098 3.916-9.234.683-1.068 1.356-1.862 1.996-2.383.64-.52 1.21-.739 1.704-.739v-1.244c-.873 0-1.712.385-2.49 1.018-.778.633-1.533 1.544-2.258 2.678-1.45 2.27-2.84 5.528-4.058 9.542l1.19.362zm-2.615 11.362c.735-4.08 1.572-7.934 2.615-11.362l-1.19-.362c-1.063 3.494-1.91 7.401-2.65 11.504l1.225.22zm.231-.564l-.711-.154-.264 1.216.713.154.263-1.216zm6.805 1.64c-2.304-.67-4.605-1.166-6.804-1.64l-.263 1.216c2.206.476 4.464.963 6.72 1.618l.347-1.194zm11.93-5.441c-4.03 1.479-8.263 3.377-12.387 5.484l.566 1.108c4.088-2.089 8.276-3.966 12.249-5.424l-.429-1.168zm-1.762-6.62c.522 2.287.94 4.684 1.361 7.302l1.229-.197c-.422-2.626-.846-5.054-1.377-7.382l-1.213.277zm-6.89-12.733c.525.02 1.098.262 1.712.804.615.543 1.243 1.36 1.86 2.459 1.236 2.196 2.378 5.41 3.319 9.472l1.212-.28c-.954-4.12-2.129-7.462-3.446-9.803-.658-1.17-1.367-2.115-2.123-2.782-.758-.668-1.593-1.08-2.489-1.114l-.046 1.244zm-.083 0h.105v-1.244h-.105v1.244zM71.73 63.23c1.118.197 2.282.477 3.484.768l.293-1.21c-1.195-.288-2.398-.579-3.562-.783l-.215 1.225zm-.018 4.432c.32-1.698.532-3.287.743-4.967l-1.235-.155c-.21 1.676-.419 3.233-.73 4.892l1.222.23zm-.393-.97c-.18.102-.383.218-.563.337l.689 1.036c.136-.09.3-.184.49-.292l-.616-1.081zm.49-.292c-.137.09-.301.184-.49.292l.616 1.081c.18-.102.383-.218.562-.337l-.688-1.036zm1.468-.871c-.476.283-.953.568-1.438.852l.629 1.073c.49-.286.97-.573 1.446-.856l-.636-1.07zm3.85-2.203c-1.32.696-2.58 1.446-3.85 2.203l.637 1.069c1.275-.76 2.507-1.494 3.793-2.172l-.58-1.1zm-1.913.672c.682.164 1.375.332 2.068.485l.27-1.214c-.681-.151-1.362-.316-2.046-.48l-.291 1.209zm-32.22 41.716c-.972-1.569-1.09-3.772-.224-6.512.864-2.734 2.684-5.917 5.444-9.342l-.969-.781c-2.819 3.498-4.736 6.818-5.662 9.748-.923 2.924-.884 5.546.354 7.543l1.058-.656zm26.423-.153c-6.542 2.347-12.469 3.583-17.124 3.609-4.696.026-7.897-1.175-9.297-3.454l-1.06.652c1.758 2.86 5.558 4.073 10.363 4.046 4.846-.027 10.92-1.308 17.538-3.682l-.42-1.171zm-1.253-8.815c.211 3.37.528 6.528.844 9.467l1.237-.133c-.315-2.934-.63-6.07-.84-9.412l-1.241.078zM49.69 87.254c5.202 3.596 11.558 6.972 18.852 10.027l.48-1.148c-7.233-3.03-13.51-6.366-18.624-9.902l-.708 1.023zm-1.472 2.598c.724-.927 1.449-1.753 2.29-2.696l-.928-.828c-.844.945-1.592 1.797-2.343 2.758l.981.766zm20.703 4.5c-6.6-2.82-12.563-6.051-17.365-9.38l-.709 1.023c4.884 3.384 10.922 6.655 17.586 9.5l.489-1.144zm-.97-12.464c-.212 4.538-.106 8.86.105 13.067l1.242-.063c-.21-4.185-.314-8.463-.105-12.946l-1.243-.058zm.738-11.248c-.316 3.67-.633 7.463-.739 11.26l1.244.034c.105-3.755.419-7.514.735-11.187l-1.24-.106zM51.66 85.906c4.694-5.092 10.861-10.094 17.987-14.688l-.674-1.046c-7.192 4.636-13.446 9.704-18.228 14.89l.915.844zm17.42-17.728c-7.723 4.954-14.5 10.545-19.698 16.04l.904.855c5.12-5.414 11.818-10.942 19.465-15.847l-.672-1.048zm.09-2.385c-.116.924-.233 1.863-.37 2.82l1.23.177c.14-.97.259-1.92.374-2.843l-1.234-.154zm.473-3.482c-.18 1.133-.325 2.297-.473 3.482l1.234.154c.149-1.189.292-2.332.468-3.441l-1.23-.195zm-10.373-.645c3.346.208 7.005.625 10.872 1.354l.23-1.223a89.675 89.675 0 00-11.025-1.373l-.077 1.242zm-4.277 3.462c2.397 0 4.442-1.672 4.924-3.954l-1.217-.258c-.36 1.703-1.894 2.968-3.707 2.968v1.244zm-4.819-3.843c.485 2.171 2.525 3.843 4.819 3.843v-1.244c-1.708 0-3.246-1.264-3.604-2.87l-1.215.271zm-11.23 6.372c.559-1.533 1.86-2.821 3.89-3.826 2.03-1.005 4.742-1.7 8.016-2.063l-.137-1.236c-3.358.371-6.225 1.092-8.432 2.184-2.208 1.093-3.802 2.585-4.506 4.514l1.169.427zm11.259 16.487c-4.181-3.072-7.411-6.171-9.383-9.042-1.984-2.888-2.615-5.42-1.876-7.445l-1.169-.427c-.945 2.59-.05 5.564 2.02 8.576 2.08 3.03 5.43 6.224 9.67 9.34l.738-1.002zm21.514 21.405c-.316-2.622-.629-5.326-.733-8.234l-1.243.044c.106 2.966.425 5.717.74 8.339l1.236-.149zm9.402-4.982a66.53 66.53 0 01-10.221 4.468l.403 1.177a67.788 67.788 0 0010.412-4.552l-.594-1.093zm-5.584-.647c1.893.629 3.803 1.263 5.715 1.793l.332-1.199c-1.877-.52-3.757-1.144-5.654-1.774l-.392 1.18zm-5.421-2.013c1.711.746 3.522 1.383 5.421 2.013l.393-1.18c-1.891-.628-3.659-1.25-5.317-1.973l-.497 1.14zm17.866 17.081c-1.202 3.957-2.55 7.097-3.916 9.233-.683 1.069-1.356 1.863-1.996 2.383-.64.521-1.21.739-1.704.739v1.244c.873 0 1.712-.385 2.49-1.018.777-.633 1.533-1.543 2.258-2.678 1.45-2.269 2.839-5.528 4.058-9.542l-1.19-.361zm2.614-11.465c-.734 4.183-1.572 8.036-2.614 11.465l1.19.362c1.063-3.495 1.91-7.403 2.65-11.612l-1.226-.215zm-7.035-1.078c2.551.741 4.993 1.27 7.521 1.795l.253-1.218c-2.525-.525-4.925-1.045-7.427-1.772l-.347 1.195zm-11.938 5.444c3.93-1.376 8.169-3.277 12.4-5.49l-.577-1.103c-4.191 2.193-8.374 4.067-12.234 5.419l.41 1.174zm1.77 6.617c-.522-2.288-.94-4.684-1.362-7.303l-1.228.197c.422 2.626.845 5.055 1.376 7.382l1.213-.276zm.108.435c-.026-.131-.059-.296-.125-.494l-1.18.394c.039.117.059.214.085.345l1.22-.245zm.085.345a2.669 2.669 0 01-.085-.345l-1.22.245c.026.131.06.297.126.495l1.18-.395zm3.928 4.183c0-2.553-1.964-4.487-4.488-4.607l-.06 1.243c1.899.09 3.303 1.512 3.303 3.364h1.245zm-1.82 3.639c1.085-.842 1.82-2.171 1.82-3.639h-1.245c0 1.049-.528 2.028-1.338 2.655l.763.984zm4.566 4.235c-.59 0-1.305-.354-2.094-1.214-.78-.85-1.563-2.121-2.284-3.763l-1.14.5c.754 1.715 1.603 3.118 2.507 4.104.895.975 1.918 1.617 3.011 1.617v-1.244zm.106 0h-.106v1.244h.106v-1.244zm11.195-25.891c-1.794-.421-3.692-.841-5.587-1.261l-.269 1.215c1.896.42 3.787.838 5.572 1.257l.284-1.211zm-.684-.032l-.074.555 1.233.165.074-.556-1.233-.164zm.668-4.408c-.283 1.502-.482 3-.668 4.408l1.233.164c.188-1.413.382-2.879.658-4.342l-1.223-.23zm.393.97c.18-.102.383-.218.562-.337l-.688-1.036c-.137.09-.301.185-.49.292l.616 1.082zm-.49.293a8.71 8.71 0 01.49-.292L91.32 96.9c-.18.103-.383.218-.563.337l.689 1.037zm-.03.019l-.629-1.074.628 1.074zm-5.274 3.047c1.69-.947 3.485-2 5.274-3.047l-.63-1.074a323.231 323.231 0 01-5.252 3.036l.608 1.085zm5.81-6.852c-.379.216-.73.43-1.07.64l.65 1.06c.343-.21.677-.415 1.035-.619l-.615-1.081zm.634-11.867c-.21 4.29-.525 8.474-.945 12.34l1.237.135c.423-3.895.74-8.103.95-12.414l-1.242-.061zm-.106-13.576c.21 4.396.315 8.885.105 13.579l1.243.055c.212-4.746.106-9.278-.105-13.693l-1.243.06zm-5.488-1.648c2.001.734 3.996 1.467 5.885 2.199l.45-1.16a358.459 358.459 0 00-5.906-2.207l-.429 1.168zm-1.065-.355l1.083.361.392-1.18-1.08-.361-.395 1.18zm-6.246-1.935c2.05.533 4.103 1.219 6.246 1.935l.394-1.18c-2.136-.714-4.23-1.414-6.327-1.959l-.313 1.204zm-6.15 3.704a105.964 105.964 0 016.594-3.754l-.576-1.103a107.091 107.091 0 00-6.67 3.798l.652 1.059zm-1.054.63a36.4 36.4 0 011.036-.62l-.616-1.08c-.378.215-.729.43-1.07.64l.65 1.06zm-1.07.64c.379-.216.73-.43 1.07-.64l-.65-1.06c-.343.21-.677.414-1.035.618l.615 1.082zm-.528 11.851c.105-4.28.42-8.353.84-12.327l-1.238-.13c-.422 3.998-.74 8.106-.846 12.427l1.244.03zm.105 13.591c-.21-4.395-.315-8.885-.105-13.578l-1.243-.056c-.212 4.747-.106 9.278.105 13.694l1.243-.06zm5.488 1.648c-2.001-.734-3.996-1.466-5.885-2.198l-.45 1.16c1.902.737 3.907 1.473 5.906 2.206l.429-1.168zm0 0h-.001l-.427 1.169.427-1.169zm-.017-.005l-.394 1.18.394-1.18zm7.223 2.295c-2.393-.622-4.79-1.452-7.216-2.293l-.408 1.175c2.417.838 4.862 1.686 7.311 2.322l.313-1.204zm6.15-3.703a105.882 105.882 0 01-6.594 3.754l.576 1.103a107.298 107.298 0 006.67-3.798l-.653-1.06zm1.054-.63c-.344.21-.677.415-1.036.619l.616 1.08c.378-.215.729-.43 1.07-.639l-.65-1.06zm33.424 2.006c-.602 1.754-2.23 3.225-4.906 4.292-2.67 1.064-6.3 1.688-10.732 1.791l.029 1.244c4.516-.106 8.307-.741 11.164-1.879 2.851-1.137 4.855-2.811 5.622-5.044l-1.177-.404zM115.87 82.82c3.386 2.751 5.826 5.449 7.248 7.917 1.426 2.473 1.791 4.64 1.188 6.397l1.177.404c.765-2.228.235-4.782-1.287-7.422-1.524-2.645-4.086-5.454-7.542-8.262l-.784.966zm-2.832-2.194l2.843 2.202.762-.983-2.842-2.203-.763.984zM94.174 96.6c7.719-4.952 14.606-10.543 19.702-16.044l-.913-.846c-5.01 5.408-11.809 10.935-19.46 15.843l.671 1.047zm-.562 5.862c.315-2.095.633-4.208.846-6.323l-1.238-.125c-.21 2.08-.522 4.163-.839 6.263l1.23.185zm15.056.754c-4.684.104-10.009-.414-15.557-1.457l-.23 1.222c5.612 1.055 11.025 1.585 15.815 1.479l-.028-1.244zM82.47 89.882c4.702 0 8.517-3.799 8.517-8.49h-1.244c0 4-3.254 7.246-7.273 7.246v1.244zm-8.518-8.49c0 4.691 3.816 8.49 8.518 8.49v-1.245c-4.02 0-7.274-3.245-7.274-7.244h-1.244zm8.518-8.488c-4.702 0-8.518 3.798-8.518 8.489h1.244c0-4 3.255-7.245 7.274-7.245v-1.244zm8.517 8.489c0-4.69-3.815-8.49-8.517-8.49v1.245c4.019 0 7.273 3.246 7.273 7.245h1.244z" fill="#006FB7"/><path opacity=".5" d="M11.856 41.91L81.348 1.787l69.492 40.121v80.243l-69.492 40.121-69.492-40.121V41.909z" stroke="#697891" stroke-width="1.914"/></svg>