<svg width="163" height="164" fill="none" xmlns="http://www.w3.org/2000/svg"><path d="M44.605 51.624h0c4.28-4.474 9.91-6.679 15.567-6.679 5.66 0 11.336 2.207 15.614 6.676l.003.003 4.435 4.676 1.554 1.639 1.563-1.63 4.44-4.634.002-.001a21.476 21.476 0 0131.185 0c8.607 8.997 8.607 23.463 0 32.46h0c-6.04 6.313-12.053 12.606-18.066 18.898-6.125 6.41-12.25 12.82-18.402 19.25l-.007.008a1.005 1.005 0 01-1.13.232 1.005 1.005 0 01-.333-.232l-.005-.005-36.418-38.197v-.002c-8.6-9.005-8.609-23.466-.002-32.462z" stroke="#FB8637" stroke-width="4.307"/><path opacity=".5" d="M11.856 41.91L81.348 1.787l69.492 40.121v80.243l-69.492 40.121-69.492-40.121V41.909z" stroke="#697891" stroke-width="1.914"/></svg>