<svg width="163" height="164" fill="none" xmlns="http://www.w3.org/2000/svg"><path opacity=".5" d="M11.856 41.91L81.348 1.787l69.492 40.121v80.243l-69.492 40.121-69.492-40.121V41.909z" stroke="#697891" stroke-width="1.914"/><path d="M98.502 34.125c-1.14.085-2.088 1-2.212 2.136-.02 1.035-.144 2.171-.577 3.199l-29.178-.067c-.395-1.041-.477-2.18-.458-3.215.023-1.241-.996-2.086-2.133-2.208-1.14.085-2.087 1-2.212 2.136-.07 9.415 8.997 17.118 16.034 22.718-2.627 2.13-5.358 4.36-7.68 6.806-5.692 5.7-8.372 10.726-8.366 16.003.047 8.693 7.47 15.747 16.034 22.718-2.627 2.129-5.358 4.361-7.785 6.907-5.794 5.596-8.474 10.622-8.468 15.899-.011.621.29 1.143.594 1.458.305.316 1.023.638 1.437.645a2.432 2.432 0 002.212-2.137c.02-1.034.144-2.17.577-3.198l29.284-.035c.394 1.041.477 2.181.458 3.215-.023 1.241.996 2.086 2.132 2.208.62.01 1.144-.291 1.46-.597.421-.407.639-1.024.647-1.438.07-9.414-8.997-17.117-16.034-22.717 2.627-2.129 5.358-4.361 7.68-6.806 5.693-5.7 8.372-10.727 8.366-16.004.07-9.414-8.997-17.117-16.033-22.717 2.626-2.13 5.357-4.36 7.784-6.908 5.693-5.7 8.372-10.726 8.261-15.901.011-.621-.289-1.144-.594-1.459-.094-.519-.71-.736-1.23-.641zM96.15 83.131c-.464 2.683-1.86 5.454-4.4 8.516l-21.418-.042c-2.227-2.727-3.934-5.549-4.189-8.554l30.007.08zm-6.936 11.371c-2.528 2.442-5.264 4.88-8.202 7.108-2.753-2.218-5.608-4.541-8.146-7.17l16.348.063zM66.09 80.257c.464-2.683 1.86-5.454 4.295-8.414l21.523-.06c2.226 2.727 3.933 5.549 4.188 8.554l-30.005-.08zm6.936-11.371c2.528-2.442 5.264-4.88 8.202-7.108 2.753 2.218 5.608 4.541 8.146 7.17l-16.348-.062zm8.098-12.697a109.003 109.003 0 01-7.536-6.54l15.106.042c-2.212 2.137-4.838 4.266-7.57 6.498zm-.11 50.905a108.91 108.91 0 017.536 6.54l-15.107-.042c2.314-2.031 4.839-4.266 7.57-6.498zm13.61-64.755c-.854 1.434-1.915 2.866-3.187 4.5l-20.485-.13a32.064 32.064 0 01-3.125-4.5l26.797.13zm-27.111 78.605c.854-1.434 1.915-2.865 3.187-4.5l20.486.13a32.085 32.085 0 013.124 4.501l-26.797-.131z" fill="#4FBFFE"/></svg>