<svg width="163" height="164" fill="none" xmlns="http://www.w3.org/2000/svg"><path fill-rule="evenodd" clip-rule="evenodd" d="M60.373 119.543V102.32h3.43v6.89h37.723V57.53H63.803v6.891h-3.43V50.643c0-3.807 3.065-6.894 6.868-6.894h30.846c3.793 0 6.868 3.106 6.868 6.894V119.543c0 3.808-3.064 6.894-6.868 6.894H67.24c-3.793 0-6.868-3.107-6.868-6.894zm3.43 0v-6.887h37.723v6.887a3.437 3.437 0 01-3.44 3.449H67.242c-1.891 0-3.438-1.557-3.438-3.449zm37.723-65.458v-3.442c0-1.892-1.548-3.449-3.44-3.449H67.242a3.437 3.437 0 00-3.438 3.449v3.442h37.723zm-22.983 62.016h8.24c.582 0 1.025.454 1.025 1.015v1.415c0 .536-.459 1.015-1.025 1.015h-8.24a1.009 1.009 0 01-1.024-1.015v-1.415c0-.536.459-1.015 1.024-1.015zM74.46 85.549c-.426 1.706-2.039 2.99-3.767 2.99H53.483c-1.696 0-3.341-1.28-3.756-2.947l-6.042-24.28c-.032-.13-.3-.336-.475-.336h-6.843V57.53h6.843c1.734 0 3.384 1.268 3.802 2.947l1.84 7.39H78.873L74.46 85.548zm.02-14.237L71.132 84.71c-.046.184-.295.383-.441.383H53.483c-.128 0-.397-.21-.429-.337l-3.346-13.444h24.77zM56.944 95.429a3.437 3.437 0 01-3.43 3.445 3.437 3.437 0 01-3.429-3.445 3.437 3.437 0 013.43-3.445 3.437 3.437 0 013.429 3.445zm13.717 3.445a3.437 3.437 0 003.429-3.445 3.437 3.437 0 00-3.43-3.445 3.437 3.437 0 00-3.429 3.445 3.437 3.437 0 003.43 3.445z" fill="#23B65E"/><path opacity=".5" d="M11.856 41.91L81.348 1.787l69.492 40.121v80.243l-69.492 40.121-69.492-40.121V41.909z" stroke="#697891" stroke-width="1.914"/></svg>