<svg xmlns="http://www.w3.org/2000/svg" width="228.269" height="316.035" viewBox="0 0 60.396 83.618"><path d="M59.569 49.3c-.91.894-5.07 2.663-5.528 2.875 1.251 2.503 1.506 2.738.998 4.844-.262 1.089-1.457 1.848-2.564 2.046-1.991.352-6.178.595-8.873.102a1.61 1.61 0 01.582-3.165c2.195.406 5.818.209 7.6-.08l.2-.646c-.13-.318-.367-.773-.522-1.08-.413-.8-.765-1.488-.875-2.141-.31-1.916 1.718-2.692 3.863-3.517.773-.293 2.015-.77 2.459-1.1.056-.202.113-.492.145-.717-.748-1.023-1.58-2.05-2.392-3.045-3.517-4.328-7.504-9.232-5.154-15.416 1.393-3.676 1.467-7.793 1.185-9.525-.769-4.724-1.841-7.062-3.845-9.987-.565.55-6.03 5.15-8.153 6.844-5.595 4.462-11.38 9.073-15.392 14.943-5.954 8.714-7.732 20.08-4.748 30.4.821 2.844 2.1 5.205 3.14 7.714 1.52-.91 3.318-1.022 4.46-1.03 3.558-.03 7.414 1.237 10.928 2.389 4.057 1.333 8.251 2.71 10.216 1.372 1.987-1.355 1.708-2.72.646-5.306-.58-1.421-1.318-3.068-.074-4.762.78-1.055 2.021-1.566 2.85-1.683a1.6 1.6 0 011.814 1.369 1.604 1.604 0 01-1.366 1.813c-1.2.182-.713.902-.247 2.043.89 2.173 2.547 6.215-1.813 9.183-1.168.793-2.522 1.107-4.007 1.107-2.682 0-5.793-1.02-9.021-2.081-4.561-1.5-9.499-3.286-13.395-1.658.279.92.505 1.89.656 2.935.12.818.59 5.02-1.901 7.524-1.622 1.632-3.826 1.959-6.096 1.648a1.608 1.608 0 01.444-3.185c1.542.211 2.674-.032 3.37-.73 1.17-1.18 1.181-3.568 1.001-4.791-.689-4.723-3.223-7.892-4.695-12.979-3.246-11.232-1.31-23.608 5.182-33.105 4.286-6.272 10.262-11.035 16.044-15.645 2.1-1.673 4.269-3.401 6.312-5.169 2.08-1.803 4.356-3.955 5.009-6.674a1.61 1.61 0 013.13.751c-.385 1.598-1.137 3.013-2.093 4.297 2.473 3.496 3.905 6.332 4.816 11.935.349 2.144.278 6.893-1.352 11.183-1.69 4.455 1.246 8.064 4.643 12.248.942 1.157 1.916 2.353 2.79 3.587.801 1.126.444 3.258-.377 4.064"/><path d="M11.702 72.268C6.79 66.817-3.723 43.532 7.8 29.311c6.29-7.762 11.946-11.091 17.934-14.615 4.64-2.73 9.436-5.553 14.97-10.726A1.609 1.609 0 0142.9 6.319c-5.793 5.416-10.746 8.33-15.535 11.148-5.73 3.373-11.143 6.558-17.067 13.869-10.153 12.53-.526 33.988 3.793 38.78a1.607 1.607 0 11-2.389 2.152M.556 25.312a1.608 1.608 0 01-.164-2.269c2.562-2.96 3.107-3.694 6.431-5.778 4.735-2.968 10.618-3.623 13.635-4.686 2.134-.75 3.675-1.795 4.578-3.107a1.608 1.608 0 012.649 1.823c-1.298 1.885-3.37 3.336-6.16 4.317-3.624 1.276-7.635 1.384-13.062 4.42-2.093 1.44-2.432 1.41-5.638 5.116a1.61 1.61 0 01-2.269.164"/><path d="M36.818 44.823a1.603 1.603 0 01-2.226.459l-3.4-2.24a1.602 1.602 0 01-.808 1.601 1.6 1.6 0 01-2.187-.617l-2.922-5.215a1.605 1.605 0 01.075-1.686 1.577 1.577 0 011.541-.691l5.825.776c.881.12 1.499.928 1.382 1.806a1.613 1.613 0 01-1.146 1.334l3.408 2.244c.744.49.949 1.488.458 2.229M32.035 55.015a1.615 1.615 0 01-2.255.303l-3.235-2.466a1.615 1.615 0 01-.92 1.542 1.609 1.609 0 01-2.141-.77l-2.555-5.404c-.257-.55-.183-1.2.19-1.679a1.6 1.6 0 011.588-.582l5.758 1.178a1.604 1.604 0 011.252 1.898 1.594 1.594 0 01-1.238 1.246l3.249 2.48c.709.54.843 1.548.307 2.254"/></svg>