<svg xmlns="http://www.w3.org/2000/svg" width="560" height="560" viewBox="0 0 148.167 148.167"><g fill="#20303c"><path d="M126.468 21.699C112.475 7.706 93.871 0 74.083 0 43.346 0 15.037 19.7 4.476 48.61 1.5 56.753 0 65.414 0 74.082c0 39.754 34.33 74.084 74.083 74.084 13.476 0 26.767-3.747 38.435-10.836 11.71-7.115 21.188-17.237 27.41-29.271 5.39-10.417 8.239-22.166 8.239-33.977 0-19.788-7.706-38.391-21.699-52.384zm8.32 83.701c-5.734 11.091-14.474 20.422-25.275 26.984-10.763 6.539-23.014 9.995-35.43 9.995-36.599 0-68.295-31.697-68.295-68.296 0-37.23 31.065-68.295 68.295-68.295 18.242 0 35.393 7.104 48.292 20.003 12.9 12.9 20.004 30.05 20.004 48.292 0 10.89-2.625 21.718-7.591 31.317"/><path d="M131.318 83.643a2.894 2.894 0 00-3.44 2.216 53.752 53.752 0 01-1.737 6.218c-7.412 21.391-28.385 36.637-51.006 37.075-30.158.628-56.235-24.808-56.13-55.06.101-30.008 25.253-55.089 55.338-55.089 25.317 0 47.784 17.972 53.474 42.816a2.894 2.894 0 105.642-1.292c-6.288-27.454-31.123-47.311-59.116-47.311-33.232 0-61.013 27.703-61.127 60.857-.114 33.461 28.674 61.552 62.035 60.866 24.993-.484 48.17-17.33 56.36-40.966a59.428 59.428 0 001.925-6.89 2.894 2.894 0 00-2.218-3.44"/><path d="M74.084 116.887a2.894 2.894 0 002.895-2.894V99.68c1.645.175 3.237.264 4.774.264 8.37 0 15.131-2.59 20.164-7.74 10.871-11.124 6.26-29.59 6.06-30.37-.296-1.145-1.235-2.036-2.408-2.188-1.165-.15-2.28.377-2.86 1.394-.11.16-.923 1.288-2.89 2.813-1.975 1.534-5.544 3.787-11.324 5.818-4.682 1.645-8.58 4.7-11.516 8.974v-8.358c3.096-2.421 10.312-9.34 10.312-21.236 0-13.179-11.036-21.347-11.506-21.688a2.894 2.894 0 00-3.401 0c-.47.341-11.506 8.51-11.506 21.688 0 11.896 7.216 18.815 10.312 21.236v8.361c-2.936-4.276-6.836-7.332-11.52-8.977-10.665-3.747-13.982-8.298-14.213-8.63-.58-1.019-1.696-1.546-2.86-1.395-1.173.152-2.111 1.043-2.407 2.188-.202.78-4.813 19.246 6.059 30.37 5.033 5.151 11.792 7.74 20.163 7.74 1.538 0 3.132-.089 4.778-.264v14.313a2.895 2.895 0 002.894 2.894zm16.33-41.756c5.137-1.804 9.424-4.007 12.757-6.553.454 5.475.074 13.986-5.393 19.581-3.171 3.245-7.202 5.166-12.186 5.787 5.429-3.926 8.962-8.449 9.189-8.743a2.893 2.893 0 10-4.584-3.534c-.063.082-5.396 6.92-12.59 10.366 1.133-5.32 4.26-13.901 12.807-16.904zm-23.747-26.08c0-7.406 4.776-13 7.417-15.527 2.642 2.527 7.419 8.121 7.419 15.527 0 5.923-2.27 10.267-4.524 13.122V52.46a2.894 2.894 0 00-5.788 0v9.713c-2.255-2.856-4.524-7.2-4.524-13.121zm-8.7 32.616a2.894 2.894 0 00-4.581 3.536c.226.294 3.76 4.817 9.189 8.742-4.984-.622-9.016-2.542-12.186-5.786-5.468-5.596-5.847-14.107-5.394-19.58 3.333 2.545 7.62 4.747 12.758 6.552 8.496 2.985 11.64 11.564 12.79 16.892-7.162-3.448-12.512-10.275-12.576-10.356M134.895 73.519c-.515-2.537-3.992-3.147-5.319-.922-1.347 2.258.9 5.05 3.388 4.23 1.363-.448 2.22-1.895 1.931-3.308"/></g></svg>