<svg xmlns="http://www.w3.org/2000/svg" width="7768.016" height="3248.318" viewBox="0 0 2055.288 859.451"><path d="M910.085 665.07H7.055" fill="none" stroke="#000" stroke-width="14.1105699" stroke-linecap="round" stroke-linejoin="round" stroke-miterlimit="10"/><path d="M2048.232 665.07h-903.028" fill="none" stroke="#000" stroke-width="14.111387399999998" stroke-linecap="round" stroke-linejoin="round" stroke-miterlimit="10"/><path d="M1145.2 665.07c8.311 17.174 12.97 36.439 12.97 56.798 0 72.09-58.44 130.527-130.527 130.527-72.088 0-130.527-58.437-130.527-130.527 0-20.36 4.658-39.624 12.969-56.798" fill="none" stroke="#000" stroke-width="14.11065168" stroke-linecap="round" stroke-linejoin="round" stroke-miterlimit="10"/><path d="M1228.708 2.722c.483-2.467-2.378-3.829-3.507-1.58-136.882 270.934-226.484 547.16-246.698 615.763-5.659 19.205-14.033 37.55-25.905 53.672-11.365 15.441-18.087 34.522-18.087 55.171 0 51.435 41.694 93.133 93.133 93.133 51.43 0 93.125-41.698 93.125-93.133 0-24.8-9.688-47.332-25.494-64.022-8.52-8.989-16.2-19.621-17.796-31.902-32.2-247.681 142.427-581.878 151.229-627.102"/></svg>