<svg xmlns="http://www.w3.org/2000/svg" width="369.467" height="56.629" viewBox="0 0 97.755 14.983"><path d="M90.18 4.354a11.603 11.603 0 01-.88-.183c.807.176 1.628.27 2.45.29a8.69 8.69 0 01-1.57-.107zm-1.087.059l-.27-.11c.337.08.677.148 1.02.203a15.665 15.665 0 01-.75-.093zm-3.703-1.32a14.85 14.85 0 01-.31-.242c.353.194.712.378 1.08.543.566.254 1.148.47 1.74.655.146.064.292.126.439.187a14.816 14.816 0 01-2.95-1.144zm2.352 1.068c-.446-.107-.89-.229-1.328-.369-.11-.068-.22-.134-.328-.205.55.228 1.116.42 1.69.581zm.144.688l.08.031a12.95 12.95 0 01-2.977-1.418c.288.133.58.251.878.353.648.39 1.32.74 2.019 1.034zm-3.141-1.757a5.323 5.323 0 01-1.028-.745l.088.056c.315.242.637.474.964.7zm5.692 3.433a6.643 6.643 0 01-1.44-.122 8.757 8.757 0 01-2.27-.804c-1.437-.734-2.687-1.772-3.933-2.808l-.003.004a11.292 11.292 0 01-.314-.415c.15.13.305.254.462.375 2.062 1.974 4.708 3.314 7.498 3.77zm-4.066-.334a14.08 14.08 0 01-3.402-2.299c-.121-.12-.244-.24-.361-.364l.093.074a13.799 13.799 0 003.67 2.589zm2.4.93c-.42.042-.84.037-1.254-.01l-.1-.03a9.283 9.283 0 01-2.546-1.305c-.224-.16-.44-.33-.651-.504.14.073.279.148.422.216.8.513 1.669.922 2.582 1.167.506.187 1.024.341 1.548.467zm-5.198-2.417c.183.148.366.3.558.438l.079.054c-.084-.05-.17-.096-.251-.147a14.15 14.15 0 01-.386-.345zm.852 1.301a10.902 10.902 0 01-1.645-1.266 25.26 25.26 0 01-1.168-1.288c.533.49 1.112.925 1.72 1.31.46.41.937.797 1.45 1.144a9.545 9.545 0 002.285 1.14 7.786 7.786 0 01-2.642-1.04zm1.808 1.574c-.08.027-.162.044-.245.058A12.729 12.729 0 0183.24 5.8a15.744 15.744 0 01-1.722-1.773 11.23 11.23 0 001.865 1.54c.124.108.245.223.373.33.77.637 1.596 1.21 2.476 1.682zm-1.056.018c-.04-.009-.078-.023-.118-.033a17.843 17.843 0 01-1.43-1.045c.026.003.05.011.078.013-.03-.003-.055-.012-.083-.017a17.987 17.987 0 01-1.612-1.482c-.071-.088-.14-.178-.21-.267.413.421.846.822 1.305 1.193.834.674 1.75 1.25 2.722 1.696a2.182 2.182 0 01-.652-.058zm-1.307-.556c-.02-.011-.038-.025-.058-.036-.096-.094-.194-.186-.288-.282.057.026.11.057.169.08-.065-.029-.125-.066-.188-.098-.1-.101-.202-.199-.3-.302.05.021.1.039.15.055.467.367.949.712 1.448 1.03a5.441 5.441 0 01-.933-.447zm-1.145-.627a8.5 8.5 0 00.837.544c.122.116.245.23.369.344a20.246 20.246 0 01-1.206-.888zm.267-.248c.108.089.217.176.327.263-.048-.019-.097-.035-.142-.058-.064-.067-.122-.138-.185-.205zm.059.304l.124.128a8.972 8.972 0 01-.585-.448c.148.115.3.222.46.32zm-.385-.375c.026.019.054.035.08.053.07.073.138.148.209.22a5.404 5.404 0 01-.663-.563c.122.099.246.197.374.29zm-1.487-1.656c.176.193.358.382.543.567.273.325.555.642.845.952-.244-.199-.48-.408-.71-.623a11.256 11.256 0 01-.678-.896zm-.914-.345l-.003.003a22.384 22.384 0 01-.636-.973c.022-.01.39.404.565.613.063.076.912 1.203 1.334 1.636a19.75 19.75 0 01-1.26-1.28zm1.752 3.163a13.232 13.232 0 01-1.485-1.736c.044.051.092.1.137.152.432.543.88 1.072 1.348 1.584zm.263.11c.46.448.942.876 1.432 1.293a12.896 12.896 0 01-1.184-.928c-.267-.298-.53-.6-.785-.91.179.182.354.367.537.544zm-2.37-3.006a30.214 30.214 0 01-.602-.931l-.002-.004a50.032 50.032 0 001.726 2.327c-.14-.165-.286-.328-.424-.496a33.547 33.547 0 01-.697-.896zm.804-.319c.114.161.23.321.348.479-.06-.065-.112-.134-.17-.2a9.527 9.527 0 01-.484-.746c.1.156.2.315.306.467zm.827-1.072c.33.36.666.716 1.013 1.061a11.987 11.987 0 01-1.587-1.62c.01-.006.387.373.574.559zm1.02.112l-.027.035.198.15c.145.158.293.312.446.462-.141-.112-.28-.228-.417-.345a13.59 13.59 0 01-1.134-1.38c.02-.014.622.723.935 1.078zm.935-.246a19.323 19.323 0 01-.152-.116 14.422 14.422 0 01-.45-.466c.195.202.396.394.602.582zM80.233 6.46a18.693 18.693 0 01-1.783-2.812c.034-.015 1.135 1.918 1.783 2.812zm-2.458 1.866a34.68 34.68 0 01-.65-1.103 28.37 28.37 0 01-.85-2.505l.136.283c.34 1.154.799 2.27 1.364 3.325zm1.66 2.533a16.376 16.376 0 01-1.764-2.347 34.79 34.79 0 01-.297-.68c.263.412.537.815.816 1.215.377.63.793 1.235 1.245 1.812zm-.888-.532a6.292 6.292 0 01-1.012-1.033 20.644 20.644 0 01-1.525-3.566 16.521 16.521 0 001.738 3.158c.252.488.52.969.8 1.441zm-2.1-4.361a44.151 44.151 0 01-.232-.46c-.11-.305-.21-.612-.302-.921.017-.005.358.92.534 1.38zm1.138.63c.148.302.302.6.453.9a24.147 24.147 0 01-.474-.852c-.046-.124-.093-.249-.136-.374zm1.182 2.347l.012.024c.214.412.424.843.682 1.237a15.351 15.351 0 01-1.22-2.014c.173.254.345.506.526.753zm-3.354-4.211l.006-.002c.038.132.072.266.114.397-.045-.13-.08-.264-.12-.395zm-.711.209c.018-.005.21.51.3.77a23.036 23.036 0 01-.3-.77zm-.17 1.994a17.906 17.906 0 001.253 3.178c-.296-.462-.527-.966-.741-1.47a48.654 48.654 0 01-.826-2.078c-.127-.469-.242-.94-.35-1.413 0 0 .432 1.194.664 1.783zm1.946 5.588a21.35 21.35 0 01-.964-1.644c.036.034.07.07.108.103-.042-.039-.078-.08-.117-.12-.037-.069-.076-.136-.112-.206-.048-.11-.098-.22-.145-.332a66.88 66.88 0 01-1.595-4.296 21.31 21.31 0 01-.174-.74l-.004-.039c.017-.004.18.33.246.5a32.736 32.736 0 002.757 6.774zm-1.724-2.841c.107.218.22.432.334.646a4.94 4.94 0 01-.334-.646zm-.7-.239c.065.156.137.31.203.465.21.623.44 1.239.706 1.84.239.535.522 1.054.857 1.534-.534-.45-.92-1.047-1.2-1.679-.305-.692-.513-1.424-.721-2.154a35.093 35.093 0 01-.337-1.324c.155.442.316.883.493 1.318zm-.981-3.787l-.048-.3c.032-.007.316 1.174.45 1.765-.14-.486-.272-.975-.402-1.465zm.062 3.528c.093.358.19.714.292 1.07.083.536.15 1.075.204 1.616a26.392 26.392 0 01-1.015-3.631 46.088 46.088 0 01-.41-2.288c.26 1.092.572 2.17.93 3.233zm.563 3.428a99.609 99.609 0 01-.474-1.679c.132.379.274.754.426 1.125.017.184.034.37.048.554zm.068 1.454c-.37-.542-.608-1.161-.78-1.79a33.98 33.98 0 01-.484-2.193 47.009 47.009 0 01-.437-2.736 103.844 103.844 0 001.643 5.43c.03.429.048.859.058 1.29zm-2.19-7.407c.28 1.337.453 2.698.506 4.067a29.343 29.343 0 01-.505-4.067zm.488 6.36c-.142-.629-.27-1.26-.385-1.894l-.135-1.286a27.078 27.078 0 00-.055-1.3c.158.923.359 1.836.603 2.736.01.582.004 1.164-.028 1.745zm-1.19-.811c.037-1.077.02-2.156-.053-3.232a19.778 19.778 0 00-.327-3.182c.056-.008.375 1.695.516 2.547a20.06 20.06 0 01-.137 3.867zm-.602-2.73c-.03-.54-.076-1.08-.131-1.617.08.534.125 1.074.13 1.616zm-1.46 1.357a15.98 15.98 0 00.123-1.586c.043-.17.08-.343.117-.517a13.934 13.934 0 01-.24 2.103zm.06-4.873c.016.083.028.167.04.25.05.544.046 1.094.003 1.643a15.432 15.432 0 00-.053-.611c.017-.418.022-.844.01-1.282zm-1.422.286c.005-.073.006-.147.01-.22h.023c-.011.073-.02.146-.033.22zm-1.402 3.822c.26-.762.428-1.557.505-2.363.057-.151.115-.302.168-.455-.093.962-.32 1.912-.673 2.818zm.02-2.313c-.09.295-.192.585-.306.87-.421.88-.93 1.72-1.523 2.498.377-.612.687-1.267.93-1.948.426-.851.78-1.802 1.06-2.868-.017.485-.071.97-.162 1.448zm-2.124 3.814c.08-.117.165-.231.24-.352.316-.38.612-.776.886-1.187a9.863 9.863 0 01-1.126 1.54zm1.282-5.263a9.26 9.26 0 00.048-.329l.035.002c-.03.11-.053.219-.083.327zm-.943 1.368c.133-.354.245-.717.34-1.085-.073.37-.19.734-.34 1.085zm-1.038.852a9.076 9.076 0 01-.165.291 10.2 10.2 0 01-.314.482l-.067.081c.197-.325.38-.66.552-1 .06-.097.117-.195.175-.293-.06.147-.114.295-.18.439zm-.451-.677a6.91 6.91 0 00.238-.534c.059-.086.12-.168.178-.255-.13.275-.27.538-.416.79zM61.43 9.648c-.27.273-.554.523-.854.749a43.998 43.998 0 001.853-2.244 6.774 6.774 0 01-1 1.495zm35.1-5.98a12.73 12.73 0 01-2.948.62c.223-.071.444-.148.66-.235 1.285-.53 2.428-1.328 3.512-2.174-1.105.819-2.267 1.586-3.55 2.076a8.272 8.272 0 01-1.348.384 12.735 12.735 0 01-3.646-.399 12.548 12.548 0 01-1.947-.69c.698.213 1.413.367 2.138.44 2.292.232 4.638-.26 6.627-1.378a11.193 11.193 0 01-6.603 1.171 11.106 11.106 0 01-4.72-1.793c.212.122.426.242.643.355.77.403 1.593.738 2.453.86-.847-.192-1.624-.584-2.35-1.04-.072-.047-.143-.096-.216-.143.358.192.723.373 1.103.521.998.388 2.102.58 3.153.365-1.06.163-2.134-.082-3.093-.51-.044-.02-2.98-1.434-2.778-2.098-.228.445-.642.734-1.04 1.009-.41.267-.834.511-1.277.723-.874.442-1.785.811-2.703 1.154a43.229 43.229 0 01-5.647 1.634c-.955.221-1.92.392-2.89.535-.968.154-1.943.255-2.92.33-.586.043-2.97.22-5.903-.11.266.08-.673 2.046-2.651 2.35.723-.052 1.422-.355 1.994-.827a9.65 9.65 0 01-.58.484c-.665.507-1.431.951-2.295.982.427.01.855-.083 1.254-.24.4-.16.776-.375 1.132-.615.172-.117.344-.237.512-.364-.304.33-.635.634-.987.913-.288.172-.6.308-.93.392.226-.038.447-.106.663-.188a8.25 8.25 0 01-1.56.903 8.36 8.36 0 001.904-1.052 3.849 3.849 0 001.567-1.453c-.242.461-.547.89-.904 1.276a5.581 5.581 0 01-1.171.915 5.38 5.38 0 00.367-.188 5.893 5.893 0 01-2.264 1.058 5.974 5.974 0 002.39-.99 14.46 14.46 0 01-1.623 1.26 14.627 14.627 0 003.074-2.529c-.805 1.061-1.744 1.87-2.82 2.443 1.583-.733 2.942-1.976 4.04-3.824-.225.481-.406.877-.57 1.22-.813 1.179-1.86 2.103-3.094 2.678a7.587 7.587 0 002.527-1.616l-.072.117c-.444.673-1.046 1.277-1.817 1.59.257-.08.5-.195.73-.333a11.65 11.65 0 01-1.18.928 11.74 11.74 0 001.554-1.174c-.514.506-1.075.967-1.685 1.362.238-.134.47-.277.698-.43-.585.503-1.192.982-1.802 1.453 1.319-.932 2.637-1.888 3.756-3.08a10.55 10.55 0 001.46-1.95 11.193 11.193 0 01-3.64 4.056 11.215 11.215 0 003.114-2.706 44.162 44.162 0 01-1.76 2.305c-.252.19-.511.37-.784.527 1.605-.824 2.934-2.197 3.897-4.234-.075.236-.156.47-.243.703-.225.475-.51.927-.835 1.345-.662.852-1.485 1.576-2.342 2.246.897-.614 1.77-1.286 2.502-2.113l.049-.058-.077.153a12.12 12.12 0 01-1.64 1.997 12.15 12.15 0 001.318-1.41c-.072.124-.143.247-.217.368-.452.462-.932.9-1.415 1.332.393-.31.786-.624 1.169-.95-.115.172-.23.345-.352.512a66.2 66.2 0 01-.458.537l.26-.277c-.344.452-.711.889-1.11 1.298a14.322 14.322 0 001.668-1.904c.19-.211.376-.427.556-.648a9.912 9.912 0 01-1.335 1.65 10.077 10.077 0 001.894-2.25c.063-.069.13-.132.19-.203a7.5 7.5 0 00.627-.848c-.078.22-.163.437-.256.652-.542.797-1.217 1.503-1.916 2.175.58-.506 1.148-1.033 1.654-1.619-.136.268-.28.532-.44.787.273-.37.52-.759.74-1.164.093-.118.189-.232.275-.356a6.78 6.78 0 00.53-.91c-.776 1.788-1.943 3.386-3.444 4.788-.025.024.01.058.037.037a12.371 12.371 0 003.258-4.249 9.644 9.644 0 01-2.493 3.904c.225-.195.443-.4.653-.615-.05.062-.097.127-.148.188.133-.142.256-.293.383-.44.478-.524.906-1.1 1.272-1.718.398-.63.752-1.288 1.052-1.973-.08.264-.172.523-.278.778-.357.79-.81 1.537-1.351 2.22-.135.16-.271.318-.42.468.067-.061.126-.128.19-.191-.285.336-.59.656-.918.953a10.403 10.403 0 001.744-1.887l.077-.104.1-.149a8.64 8.64 0 00.468-.752l.082-.15c.053-.1.109-.199.158-.301a11.3 11.3 0 00.35-.768c-.077.495-.198.983-.348 1.464a11.841 11.841 0 01-1.717 2.794c.47-.499.894-1.044 1.28-1.636a15.16 15.16 0 01-.256.527c-.032.062-.06.126-.094.187-.032.06-.067.12-.1.18a9.959 9.959 0 01-.991 1.432c.17-.183.33-.376.487-.572l-.001.002v-.002c.137-.17.264-.345.389-.524a10.06 10.06 0 001.75-2.356 9.067 9.067 0 01-.142.377c-.5.928-1.11 1.8-1.82 2.587a13.244 13.244 0 001.503-1.886 9.656 9.656 0 01-1.476 2.171 9.871 9.871 0 002.15-3.247c-.286 1.105-.737 2.169-1.398 3.11.839-1.11 1.386-2.42 1.7-3.779.018-.037.038-.073.055-.111a10.189 10.189 0 01-.987 3.218 10.34 10.34 0 01-.434.663c.093-.118.182-.239.27-.36-.207.379-.43.75-.686 1.1a9.976 9.976 0 001.103-1.733 10.693 10.693 0 001.54-4.9l.032.195c-.006.118-.013.237-.022.355h-.002v.03a14.62 14.62 0 01-1.672 5.831c.325-.536.613-1.096.867-1.673-.12.361-.241.72-.372 1.077a33.34 33.34 0 001.144-3.05 13.007 13.007 0 01-1.472 4.878 13.05 13.05 0 001.36-3.071 12.04 12.04 0 01-.525 1.746c.537-1.22.863-2.533.98-3.87.05-.383.079-.769.094-1.156.052-.195.105-.39.155-.586a16.313 16.313 0 01-1.214 5.637 16.429 16.429 0 001.416-5.944c.004.08.003.162.007.243a19.614 19.614 0 01-1.814 6.87 19.651 19.651 0 001.822-5.41 20.34 20.34 0 01-.122 1.669 11.552 11.552 0 01-1.261 3.407c.47-.765.847-1.587 1.128-2.443a20.212 20.212 0 01-.557 2.478c.132-.374.248-.752.358-1.133-.085.397-.18.792-.287 1.184.383-1.183.657-2.403.832-3.64.042-.27.078-.54.11-.811.094-.612.139-1.233.135-1.855.013-.478.099-1.442.153-1.444a15.993 15.993 0 01-.211 4.934 13.517 13.517 0 01-1.17 3.145c.934-1.573 1.548-3.343 1.81-5.357.006.123.015.245.018.368-.011.058-.02.117-.032.175-.27 1.37-.731 2.703-1.236 4.013.48-1.085.925-2.19 1.26-3.336-.023.686-.09 1.371-.203 2.05-.24.853-.56 1.685-.963 2.478.31-.549.58-1.122.813-1.71-.102.473-.22.944-.365 1.407.214-.598.387-1.211.527-1.833.578-1.62.857-3.355.812-5.09.043.257.082.514.114.772a18.149 18.149 0 01-1.266 6.088 18.15 18.15 0 001.356-5.076c.066 1.124.029 2.254-.176 3.366.097-.44.166-.887.214-1.335a18.61 18.61 0 01-.127 1.513c-.18.826-.442 1.636-.79 2.412 1.31-2.598 1.677-5.681 1.003-8.559a18.849 18.849 0 00-.02-.488l.035.112a35.66 35.66 0 01.544 4.224 11.288 11.288 0 01-.664 3.223c.325-.765.562-1.568.712-2.39.01.229.023.457.03.685.002-.269-.003-.539-.007-.808.29-1.693.2-3.459-.273-5.13.033-.004.468 1.996.58 3.012.02.372.028.745.02 1.118-.041 1.628-.386 3.273-1.166 4.724.749-1.291 1.146-2.765 1.284-4.255.043.713.063 1.429.058 2.145-.061.4-.132.8-.217 1.196.078-.297.146-.597.21-.898-.003.199-.004.397-.011.596.018-.244.03-.488.044-.733.214-1.03.343-2.079.393-3.134l.056.283c.025.684.02 1.37-.023 2.055a20.24 20.24 0 00.092-1.706l.056.253a26.974 26.974 0 01-.158 3.792c.16-1.082.247-2.175.274-3.27.037.164.075.327.114.49l.307 2.277-.19-1.808c.09.369.188.736.29 1.103-.022.376-.052.75-.09 1.125.046-.34.084-.683.117-1.026.025.091.049.183.075.274-.025-.105-.046-.21-.07-.315a24.55 24.55 0 00.092-1.545c.138.483.283.963.444 1.438a29.178 29.178 0 01-.437-1.769c.01-.575.005-1.15-.025-1.725.044.193.086.386.132.579.179.73.36 1.46.588 2.18.204.63.477 1.252.88 1.781.005.256.014.51.013.766.009-.244.008-.489.01-.734.046.059.085.121.134.177-.05-.062-.088-.13-.133-.194.004-.37 0-.738-.01-1.107.084.252.164.505.25.757-.087-.289-.17-.58-.254-.869-.006-.19-.01-.379-.02-.568.163.382.336.76.524 1.13-.193-.41-.37-.829-.531-1.252a30.307 30.307 0 00-.084-1.13l.025.086c.212.676.415 1.415.956 1.912-.521-.517-.693-1.25-.88-1.934a32.6 32.6 0 01-.163-.634c.222.585.453 1.166.703 1.738a37.25 37.25 0 01-.737-2.032 29.345 29.345 0 00-.9-4.413l-.046-.349c.022-.004.142.23.18.352.249 1.251.562 2.489.946 3.703.233.725.467 1.454.8 2.143.307.636.724 1.232 1.283 1.666.177.252.364.497.577.72a6.207 6.207 0 01-.49-.647c.015.01.027.024.04.033-.014-.011-.027-.026-.042-.038a9.112 9.112 0 01-.86-1.662c-.07-.18-.137-.36-.202-.542.382.728.81 1.43 1.315 2.077-.646-.894-1.16-1.87-1.587-2.883a30.928 30.928 0 01-.355-1.212 28.97 28.97 0 01-.362-1.54c.127.346.263.69.408 1.03l.11.316c.21.54.446 1.094.799 1.558.117.215.244.426.369.638.306.604.65 1.19 1.065 1.724a9.445 9.445 0 01-.691-1.114 21.07 21.07 0 001.168 1.66c-.203-.28-.398-.565-.587-.853-.76-1.521-1.4-3.1-1.914-4.716.123.276.246.552.373.826.262.56.54 1.127.915 1.622.425.81.905 1.592 1.45 2.325a17.477 17.477 0 01-1.215-2.051c.047.052.087.11.137.16-.055-.06-.1-.127-.15-.189a17.625 17.625 0 01-.842-1.942 26.6 26.6 0 001.502 2.75 26.578 26.578 0 01-1.905-4.028 17.529 17.529 0 01-.466-2.22 24.157 24.157 0 004.154 7.876 24.01 24.01 0 01-3.485-6.74c.2.423.415.838.64 1.248a24.775 24.775 0 002.279 4.12 24.607 24.607 0 01-1.427-2.672c.307.483.625.96.963 1.422a25.302 25.302 0 01-1.166-1.886 24.659 24.659 0 01-1.093-3.057c.167.39.344.775.532 1.155l.065.128c.29.603.6 1.196.908 1.783.892 1.699 1.804 3.422 3.072 4.877-.984-1.216-1.723-2.592-2.41-3.99a20.584 20.584 0 002.486 3.408 20.487 20.487 0 01-2.256-3.257c.276.309.578.591.91.838.075.127.148.257.225.383-.066-.119-.128-.24-.193-.36.094.07.185.144.284.206-.104-.07-.2-.152-.297-.23a29.02 29.02 0 01-.55-1.067 16.371 16.371 0 001.664 1.905c.29.352.588.694.904 1.02-.22-.247-.428-.505-.632-.765.13.123.259.25.394.369-.18-.169-.35-.348-.52-.524a17.43 17.43 0 01-2.48-4.488c.023.04.049.079.072.118a15.379 15.379 0 004.04 5.566 14.979 14.979 0 01-1.668-1.82c.145.165.305.318.487.45-.61-.475-.956-1.168-1.281-1.854a24.458 24.458 0 002.143 2.476 24.427 24.427 0 01-2.51-3.258c-.307-.651-.614-1.303-.911-1.96a74.885 74.885 0 01-.702-1.602c-.054-.222-.1-.446-.144-.67.006-.002.7 1.699 1.112 2.52.72 1.435 1.617 2.797 2.776 3.909-1.117-1.145-1.96-2.52-2.627-3.96a14.023 14.023 0 003.422 3.885 13.983 13.983 0 01-4.329-6.393 35.25 35.25 0 002.9 4.875 35.084 35.084 0 01-1.746-2.985c.362.62.765 1.216 1.2 1.785.04.056.075.116.116.173.601.833 1.29 1.615 2.072 2.28a37.117 37.117 0 002.452 2.204 39.88 39.88 0 01-1.795-1.696c.263.187.532.366.815.524a9.097 9.097 0 01-.983-.69 25.627 25.627 0 01-1.992-2.267c-.056-.073-.11-.148-.165-.222.167.198.339.39.512.581.735.903 1.548 1.74 2.52 2.384-1.465-1.055-2.52-2.539-3.5-4.027-.49-.747-.965-1.506-1.326-2.311a7.542 7.542 0 01-.355-.945c.228.38.472.751.731 1.11.015.027.033.053.048.08.03.06.056.124.088.184a16.283 16.283 0 001.715 2.71 16.794 16.794 0 004.779 4.202 16.719 16.719 0 01-5.14-4.99c1.015 1.237 2.258 2.3 3.696 2.989-1.498-.795-2.745-1.99-3.723-3.35-.053-.073-.097-.15-.147-.223.422.452.87.88 1.34 1.281.056.056.11.115.167.171a18.145 18.145 0 001.904 1.822c-.428-.376-.83-.778-1.22-1.192.149.131.292.268.444.394-.23-.203-.447-.418-.667-.632-.06-.066-.123-.129-.182-.195a16.087 16.087 0 003.582 2.16 16.082 16.082 0 01-4.12-2.811A18.182 18.182 0 0178.809 3.5c.012-.005.84 1.205 1.049 1.509l.143.228c.401.633.82 1.262 1.31 1.833.489.57 1.06 1.08 1.726 1.428-.653-.373-1.199-.9-1.662-1.481a10.845 10.845 0 01-.53-.734 13.388 13.388 0 002.02 1.869c.25.252.5.502.757.746-.208-.21-.408-.425-.609-.64.326.238.664.46 1.01.667a31.21 31.21 0 002.429 1.83 31.143 31.143 0 01-1.8-1.407c.425.308.865.593 1.326.843-.459-.273-.893-.58-1.309-.91.117.061.233.123.351.18-.145-.076-.286-.159-.428-.24-.923-.742-1.749-1.602-2.494-2.516-.033-.04-.062-.083-.095-.123a22.087 22.087 0 003.36 2.745 22.024 22.024 0 01-3.969-3.738 20.21 20.21 0 003.085 2.196 22.976 22.976 0 003.44 2.43 22.877 22.877 0 01-2.946-2.149c.66.358 1.338.682 2.033.963a19.885 19.885 0 01-2.436-1.31 22.27 22.27 0 01-.542-.502c.299.153.61.283.936.369.7.436 1.428.826 2.181 1.158a17.464 17.464 0 01-1.971-1.105c.225.047.463.062.694.034.716.326 1.46.581 2.228.743a10.668 10.668 0 01-2.091-.771c.08-.016.162-.031.239-.06.558.3 1.138.558 1.737.764a11.71 11.71 0 01-1.674-.796l.026-.014a.884.884 0 01-.03.012 14.603 14.603 0 01-2.148-1.52l.08.04c.036.023.072.047.11.069.712.409 1.483.72 2.284.894.097.022.196.034.294.051.243.056.487.103.733.14.85.217 1.74.287 2.603.15-.843.11-1.7.025-2.514-.197.353.016.705-.002 1.055-.05.437.103.879.188 1.324.246a13.219 13.219 0 01-1.228-.259c.056-.009.114-.012.17-.022-.062.01-.124.01-.186.018-.175-.045-.345-.105-.518-.156a13.384 13.384 0 01-4.42-2.457c.163.106.328.208.494.308 1.949 1.454 4.312 2.334 6.719 2.441a11.927 11.927 0 01-4.572-1.348 16 16 0 002.489.814 16.048 16.048 0 01-3.41-1.354 12.32 12.32 0 01-.87-.61c.59.386 1.2.742 1.845 1.038a8.94 8.94 0 002.343.718c.538.083 1.086.1 1.625.049l.071.012-.062-.013c.269-.025.535-.062.797-.126-.31.062-.624.088-.938.097a14.026 14.026 0 01-5.827-2.662c.19.1.381.2.576.291a12.62 12.62 0 005.413 1.906 12.229 12.229 0 01-1.932-.436c.204.027.41.034.618.017-.28.014-.554-.02-.822-.081-.38-.126-.755-.269-1.121-.43A8.616 8.616 0 0187 4.923c-.101-.06-.196-.128-.295-.19.466.151.94.276 1.42.371.602.173 1.212.31 1.828.416.892.208 1.807.31 2.718.285.076.004.152.01.228.012l-.168-.014a9.047 9.047 0 001.237-.118 9.196 9.196 0 01-1.547.092 21.338 21.338 0 01-2.408-.346 10.17 10.17 0 01-.462-.13l.074.008c1.324.264 2.696.263 3.99-.102a8.212 8.212 0 01-3.047.133 11.776 11.776 0 002.803-.333 11.824 11.824 0 01-3.438.226 10.122 10.122 0 01-2.884-1.072c.22.054.44.106.66.153.47.097.943.17 1.418.227.242.086.488.166.736.235.914.25 1.912.343 2.817.024-.914.292-1.896.17-2.794-.104-.104-.033-.207-.072-.31-.108.242.023.484.04.727.053.199.02.398.036.597.047-.116-.01-.23-.025-.345-.037a17.185 17.185 0 003.573-.242c-.61.092-1.226.146-1.842.172a7.05 7.05 0 00.841-.162 12.814 12.814 0 003.404-.75M6.004 4.46a12.86 12.86 0 002.45-.29c-.291.071-.584.136-.88.184a8.69 8.69 0 01-1.57.107zm1.908.046a13.52 13.52 0 001.02-.204c-.09.038-.18.075-.27.11-.25.038-.5.069-.75.094zm1.504-.27c.146-.061.293-.123.438-.187a15.692 15.692 0 001.741-.655c.368-.165.726-.35 1.08-.543a15.03 15.03 0 01-.311.241 14.84 14.84 0 01-2.948 1.144zm.563-.068a14.97 14.97 0 001.69-.581c-.108.071-.219.137-.328.205-.438.14-.883.262-1.33.369zm1.909-.353c.298-.102.59-.22.877-.353A12.948 12.948 0 019.787 4.88l.082-.031c.699-.295 1.37-.645 2.019-1.034zm1.098-.712c.326-.226.648-.458.963-.7l.09-.056a5.32 5.32 0 01-1.03.745zm1.83-.348c.157-.12.311-.245.462-.375-.103.14-.205.28-.314.415l-.003-.004c-1.247 1.036-2.496 2.074-3.934 2.808a8.76 8.76 0 01-2.27.804 6.643 6.643 0 01-1.44.122c2.79-.456 5.436-1.796 7.499-3.77zm.238.847l.093-.074c-.118.124-.24.243-.361.364a14.078 14.078 0 01-3.402 2.299 13.8 13.8 0 003.67-2.59zm-4.523 3.053a9.259 9.259 0 002.582-1.167c.143-.068.282-.143.422-.216-.212.174-.427.344-.651.504a9.282 9.282 0 01-2.545 1.305l-.101.03a5.905 5.905 0 01-1.255.01 13.72 13.72 0 001.548-.466zm3.265-1.606c-.083.051-.168.098-.251.147l.079-.054c.192-.139.374-.29.558-.438a14.15 14.15 0 01-.386.345zm-3.108 1.995a9.552 9.552 0 002.285-1.14c.512-.346.99-.733 1.449-1.143.609-.385 1.188-.82 1.721-1.31a25.23 25.23 0 01-1.168 1.288c-.51.47-1.053.9-1.645 1.266a7.788 7.788 0 01-2.642 1.04zm3.31-1.148c.127-.106.248-.22.373-.33.674-.443 1.3-.96 1.865-1.54-.53.633-1.1 1.23-1.723 1.774-.83.723-1.753 1.35-2.747 1.837a1.59 1.59 0 01-.244-.058 15.051 15.051 0 002.475-1.683zm-2.072 1.759a12.92 12.92 0 002.721-1.696 15.48 15.48 0 001.306-1.193c-.07.09-.139.18-.21.267a17.967 17.967 0 01-1.613 1.482c-.027.005-.054.014-.082.017.027-.002.052-.01.078-.013-.459.372-.937.72-1.43 1.045-.04.01-.078.024-.119.033a2.18 2.18 0 01-.651.058zm1.025-.168c.5-.317.981-.662 1.447-1.029a1.6 1.6 0 00.151-.055c-.097.103-.2.2-.3.302-.063.032-.123.07-.188.099.058-.024.113-.055.17-.08-.095.095-.192.187-.288.28-.02.012-.038.026-.058.037a5.44 5.44 0 01-.934.446zm.873-.185c.124-.113.247-.228.369-.344.289-.165.568-.346.836-.544-.39.311-.792.606-1.205.888zm.754-.93c-.046.022-.095.038-.142.057a17 17 0 00.326-.263c-.062.067-.12.138-.184.205zm.586-.222a8.943 8.943 0 01-.584.448l.124-.128a4.9 4.9 0 00.46-.32zm.299-.345a5.414 5.414 0 01-.663.563c.07-.072.138-.147.208-.22.027-.018.055-.034.08-.053.128-.093.252-.191.375-.29zm.434-.47c-.23.215-.465.424-.709.623.29-.31.572-.627.845-.952.185-.185.366-.374.543-.567-.212.31-.437.61-.679.896zm.333.038c.422-.433 1.27-1.56 1.334-1.636.174-.21.543-.623.564-.613-.204.33-.414.655-.635.973l-.003-.003c-.398.446-.822.87-1.26 1.28zm.855.3c.046-.051.093-.1.138-.152a13.2 13.2 0 01-1.486 1.736c.467-.512.917-1.04 1.348-1.584zm-1.074 1.15c-.255.308-.517.61-.785.909a12.91 12.91 0 01-1.183.928c.489-.417.97-.845 1.432-1.294.182-.177.358-.362.536-.543zm1.135-1.566c-.137.168-.282.33-.424.496a49.966 49.966 0 001.726-2.327l-.001.004c-.195.314-.397.624-.603.931-.228.302-.46.602-.698.896zm.201-1.682a9.713 9.713 0 01-.485.745c-.058.067-.11.136-.17.201.119-.158.235-.318.348-.479.107-.152.205-.31.307-.467zm-.56-1.164a12.019 12.019 0 01-1.586 1.62c.346-.345.682-.701 1.013-1.061.187-.186.562-.565.574-.559zm-.66-.407a13.62 13.62 0 01-1.134 1.38c-.137.117-.275.233-.416.345.152-.15.3-.304.446-.462l.198-.15-.028-.035c.312-.355.913-1.092.935-1.078zm-1.267.25a14.02 14.02 0 01-.45.466l-.152.116a12.7 12.7 0 00.602-.582zm4.444 1.394a18.74 18.74 0 01-1.782 2.812c.648-.894 1.749-2.827 1.782-2.812zm2.04 1.353l.135-.283a28.474 28.474 0 01-.849 2.505c-.21.371-.427.739-.65 1.103a17.582 17.582 0 001.364-3.325zm-1.78 4.046c.28-.4.554-.803.816-1.214a29.03 29.03 0 01-.296.679 16.39 16.39 0 01-1.765 2.347c.452-.577.868-1.182 1.245-1.812zm.442-.161a16.517 16.517 0 001.739-3.158 20.645 20.645 0 01-1.525 3.566c-.298.381-.636.73-1.013 1.033.28-.472.548-.953.8-1.441zm1.836-4.301c-.092.31-.193.616-.303.92-.076.154-.153.308-.231.46.175-.46.517-1.385.534-1.38zM20.327 6.27c-.043.125-.09.25-.136.374-.152.287-.311.571-.475.852.151-.3.306-.598.454-.9zm-.814 1.92c-.354.7-.762 1.375-1.22 2.014.258-.394.469-.825.683-1.237l.012-.024c.18-.247.353-.5.525-.753zm2.709-3.063c.041-.131.076-.265.114-.397a.06.06 0 01.006.002c-.04.131-.075.264-.12.395zm.53.584c.09-.26.283-.775.301-.77-.096.258-.196.515-.302.77zm1.134-.559c-.107.473-.222.944-.35 1.413a47.983 47.983 0 01-.825 2.078c-.215.504-.445 1.008-.742 1.47a17.9 17.9 0 001.253-3.178c.232-.589.664-1.783.664-1.783zm.148.597c.066-.17.229-.504.246-.5a2.887 2.887 0 01-.004.038c-.053.249-.113.495-.174.741a74.522 74.522 0 01-.553 1.588 65.17 65.17 0 01-1.043 2.708c-.046.112-.097.222-.145.332-.036.07-.075.137-.111.206-.04.04-.076.081-.118.12.039-.033.073-.069.109-.103-.298.56-.617 1.111-.964 1.644a32.738 32.738 0 002.757-6.774zm-1.368 4.579c.114-.214.227-.428.334-.646a4.886 4.886 0 01-.334.646zm1.527-2.203c-.105.443-.215.885-.338 1.324-.208.73-.415 1.462-.722 2.154-.279.632-.665 1.229-1.198 1.68.335-.481.618-1 .857-1.534a21.8 21.8 0 00.705-1.841c.067-.156.139-.309.203-.465.176-.435.337-.876.493-1.318zm.085-1.004c.136-.59.42-1.772.451-1.765-.016.1-.03.2-.047.3-.13.49-.264.979-.404 1.465zm1.27-1.17a45.26 45.26 0 01-.41 2.288 26.422 26.422 0 01-1.014 3.63c.053-.54.12-1.08.204-1.616.101-.355.198-.711.291-1.069a37.32 37.32 0 00.93-3.233zm-1.443 6.107c.151-.371.294-.746.426-1.125-.154.56-.312 1.12-.474 1.68.013-.186.03-.37.048-.555zm-.058.718a104.01 104.01 0 001.642-5.43c-.12.916-.263 1.829-.437 2.737a34.003 34.003 0 01-.484 2.193c-.172.629-.41 1.248-.78 1.79.01-.43.03-.86.059-1.29zm1.626-2.05c.053-1.369.225-2.73.504-4.067a29.317 29.317 0 01-.504 4.067zm-.01.55c.244-.9.444-1.814.602-2.736-.028.433-.046.865-.054 1.299l-.135 1.286a45.94 45.94 0 01-.385 1.895 24.481 24.481 0 01-.028-1.745zm1.081-2.935c.142-.852.46-2.555.517-2.547-.186 1.05-.314 2.115-.328 3.182a31.94 31.94 0 00-.052 3.232 20.072 20.072 0 01-.137-3.867zm.87-.48a35.054 35.054 0 00-.131 1.616c.005-.542.05-1.082.13-1.616zm1.089.871c.036.174.074.346.116.517.015.531.056 1.06.123 1.586a13.93 13.93 0 01-.24-2.103zm.19-1.488c-.02.203-.04.407-.053.61a9.61 9.61 0 01.002-1.641c.013-.084.025-.168.04-.25-.012.437-.007.863.01 1.28zm1.379-1.217h.022c.005.074.006.148.01.22zm.762 1.225c.052.153.11.304.168.455.077.806.244 1.6.505 2.363a10.561 10.561 0 01-.673-2.818zm.491-.943a14.82 14.82 0 001.06 2.868c.243.681.553 1.336.93 1.948a14.271 14.271 0 01-1.522-2.497 10.198 10.198 0 01-.306-.87 9.682 9.682 0 01-.162-1.449zm1.16 3.723c.274.411.57.807.885 1.187.075.12.16.235.24.352a9.863 9.863 0 01-1.126-1.54zm-.239-4.05l.035-.003c.014.11.03.22.048.33-.03-.11-.055-.219-.083-.328zm.686.609c.094.368.207.731.34 1.085a5.377 5.377 0 01-.34-1.085zm1.197 1.498c.057.098.115.196.175.293.171.34.354.675.551 1l-.067-.081c-.107-.159-.215-.317-.313-.482a9.076 9.076 0 01-.166-.291c-.066-.144-.12-.292-.18-.44zm.215-1.027c.057.087.12.17.178.255.072.182.152.36.239.534-.146-.25-.285-.514-.417-.789zm.78 1.09a43.998 43.998 0 001.853 2.245 7.896 7.896 0 01-.853-.749 6.774 6.774 0 01-1-1.495zM4.628 4.42c.276.07.557.126.84.162a17.16 17.16 0 01-1.842-.172 17.24 17.24 0 003.574.242c-.115.012-.23.027-.345.037.199-.01.398-.028.596-.047.243-.012.486-.03.728-.053-.104.036-.206.075-.31.108-.898.274-1.88.396-2.795.104.905.319 1.903.226 2.817-.024.249-.07.494-.149.737-.235.475-.057.948-.13 1.417-.227.22-.047.44-.1.66-.153a10.123 10.123 0 01-2.884 1.072 11.823 11.823 0 01-3.437-.226c.916.226 1.859.332 2.803.333a8.213 8.213 0 01-3.048-.133c1.294.365 2.667.366 3.991.102l.074-.007a12.7 12.7 0 01-.462.13c-.794.162-1.6.274-2.409.345a9.193 9.193 0 01-1.546-.092c.41.07.823.104 1.236.118l-.167.014c.076-.003.151-.008.227-.012a10.69 10.69 0 002.72-.285 17.25 17.25 0 001.826-.416c.48-.095.955-.22 1.421-.37-.1.061-.194.13-.295.189a8.76 8.76 0 01-.378.206c-.367.161-.74.304-1.121.43a2.987 2.987 0 01-.823.08c.208.018.414.01.618-.016a12.11 12.11 0 01-1.932.436 12.62 12.62 0 005.414-1.906c.194-.091.385-.19.575-.291a14.028 14.028 0 01-5.827 2.662 5.65 5.65 0 01-.937-.097c.261.064.528.1.796.126-.02.004-.04.01-.062.013.024-.003.047-.008.071-.012.54.05 1.088.034 1.625-.049a8.93 8.93 0 002.344-.718 14.132 14.132 0 001.845-1.038c-.28.216-.571.418-.87.61a16.07 16.07 0 01-3.41 1.354c.85-.202 1.682-.476 2.488-.814A11.927 11.927 0 016.6 7.248c2.407-.107 4.77-.987 6.719-2.44.166-.1.33-.203.493-.31a13.38 13.38 0 01-4.42 2.458c-.172.051-.343.11-.518.156-.061-.007-.123-.009-.185-.018.056.01.113.013.17.022-.406.104-.815.194-1.228.26.445-.06.887-.144 1.324-.247.349.048.701.066 1.055.05a6.435 6.435 0 01-2.514.198c.863.136 1.753.066 2.602-.15.247-.038.491-.085.734-.141.098-.017.196-.03.293-.05a8.071 8.071 0 002.285-.895c.038-.022.073-.046.11-.069l.08-.04a14.604 14.604 0 01-2.149 1.52.535.535 0 01-.03-.012c.01.004.018.01.027.014a11.73 11.73 0 01-1.675.796c.6-.206 1.18-.464 1.738-.763.077.028.158.043.239.059-.668.326-1.366.59-2.091.771a10.734 10.734 0 002.227-.743c.231.028.47.013.695-.034-.633.409-1.29.78-1.972 1.105a17.506 17.506 0 002.182-1.158c.325-.086.637-.216.936-.37-.179.171-.359.34-.542.503-.781.49-1.593.932-2.436 1.31a19.961 19.961 0 002.033-.963 22.843 22.843 0 01-2.947 2.15 22.971 22.971 0 003.44-2.43 20.22 20.22 0 003.086-2.197 22.037 22.037 0 01-3.97 3.738 22.103 22.103 0 003.36-2.745c-.032.04-.062.083-.094.123-.746.914-1.571 1.774-2.494 2.515-.142.082-.284.165-.429.24.119-.056.235-.118.352-.178-.417.329-.85.636-1.31.91.461-.25.901-.536 1.326-.844a31.3 31.3 0 01-1.8 1.407 31.214 31.214 0 002.43-1.83 12.93 12.93 0 001.01-.667c-.202.215-.402.43-.61.64.258-.244.508-.494.757-.746a13.346 13.346 0 002.02-1.87c-.167.252-.341.498-.53.735-.463.582-1.009 1.108-1.661 1.48.665-.347 1.237-.857 1.725-1.427.491-.57.91-1.2 1.31-1.833l.144-.228c.208-.304 1.037-1.514 1.048-1.509a18.184 18.184 0 01-2.454 4.086 16.085 16.085 0 01-4.12 2.81 16.096 16.096 0 003.581-2.16c-.058.067-.122.13-.182.196-.22.214-.437.43-.667.632.152-.126.296-.263.444-.394-.39.414-.791.816-1.219 1.192a18.09 18.09 0 001.904-1.822c.057-.056.11-.115.167-.171.47-.401.917-.829 1.34-1.281-.051.073-.095.15-.147.223-.979 1.36-2.225 2.555-3.724 3.35 1.439-.69 2.681-1.752 3.697-2.99a16.723 16.723 0 01-5.14 4.99 16.793 16.793 0 004.778-4.2 16.274 16.274 0 001.716-2.71c.031-.061.058-.124.088-.185l.047-.08c.26-.359.504-.73.732-1.11a7.66 7.66 0 01-.355.945c-.362.805-.836 1.564-1.327 2.31-.98 1.489-2.035 2.973-3.5 4.028.972-.644 1.785-1.48 2.52-2.384.174-.19.346-.383.512-.58-.055.073-.108.148-.164.22a25.596 25.596 0 01-1.993 2.268c-.311.25-.638.482-.982.69.282-.158.552-.337.815-.524a39.96 39.96 0 01-1.795 1.696 37.055 37.055 0 002.451-2.205 12.866 12.866 0 002.073-2.279c.04-.057.076-.117.116-.173a17.5 17.5 0 001.2-1.785 35.13 35.13 0 01-1.747 2.985 35.301 35.301 0 002.9-4.875 13.98 13.98 0 01-4.329 6.393 14.017 14.017 0 003.422-3.884c-.666 1.44-1.51 2.814-2.626 3.959 1.158-1.112 2.056-2.474 2.776-3.909.412-.821 1.106-2.522 1.112-2.52-.044.224-.09.448-.144.67a81.04 81.04 0 01-.702 1.603c-.297.656-.604 1.308-.91 1.96a24.428 24.428 0 01-2.512 3.257 24.47 24.47 0 002.144-2.476c-.326.686-.671 1.379-1.281 1.854a2.96 2.96 0 00.487-.45 14.98 14.98 0 01-1.67 1.82 15.375 15.375 0 004.042-5.566l.071-.118a17.425 17.425 0 01-2.478 4.488c-.172.176-.342.355-.522.524.136-.118.263-.246.395-.37-.205.26-.413.519-.632.767.315-.327.614-.67.904-1.02a16.391 16.391 0 001.662-1.906c-.175.36-.358.715-.548 1.067-.098.078-.193.16-.298.23.1-.062.19-.136.285-.206-.065.12-.127.241-.194.36.078-.126.15-.256.226-.383.331-.247.633-.53.91-.838a20.528 20.528 0 01-2.256 3.257 20.6 20.6 0 002.485-3.408c-.686 1.398-1.425 2.774-2.409 3.99 1.267-1.455 2.18-3.178 3.071-4.877.308-.587.618-1.18.909-1.783.02-.043.043-.085.064-.128.188-.38.366-.765.533-1.155a24.657 24.657 0 01-1.093 3.057 25.465 25.465 0 01-1.166 1.886c.338-.462.655-.939.962-1.422-.42.917-.895 1.81-1.426 2.672a24.822 24.822 0 002.28-4.12c.224-.41.437-.825.64-1.247a24.021 24.021 0 01-3.486 6.74 24.162 24.162 0 004.153-7.878c-.107.75-.263 1.49-.466 2.221a26.56 26.56 0 01-1.904 4.028 26.56 26.56 0 001.501-2.75 18 18 0 01-.84 1.942c-.052.062-.096.13-.152.189.05-.05.09-.108.138-.16a17.535 17.535 0 01-1.215 2.05 17.565 17.565 0 001.45-2.324c.374-.495.653-1.062.914-1.622.128-.274.25-.55.373-.826a32.555 32.555 0 01-1.914 4.716c-.189.288-.383.573-.587.852.417-.532.805-1.088 1.17-1.659a9.49 9.49 0 01-.693 1.114c.416-.535.759-1.12 1.065-1.724.126-.212.252-.423.37-.638.353-.464.59-1.019.798-1.558l.11-.315c.146-.34.281-.685.409-1.032a28.332 28.332 0 01-.363 1.541c-.11.406-.228.811-.355 1.212-.427 1.012-.94 1.99-1.587 2.883.505-.647.934-1.35 1.316-2.077-.066.182-.132.363-.203.542a9.1 9.1 0 01-.86 1.662c-.015.012-.027.027-.043.038.015-.01.026-.022.04-.033a6.2 6.2 0 01-.488.648c.212-.224.4-.469.576-.721.56-.434.977-1.03 1.283-1.666.334-.69.568-1.418.8-2.143.385-1.214.698-2.452.947-3.703.037-.122.157-.356.18-.352-.016.117-.03.233-.047.35a29.362 29.362 0 00-.9 4.412c-.226.683-.47 1.362-.737 2.032.25-.572.482-1.153.703-1.738-.053.212-.105.424-.162.634-.188.685-.359 1.417-.88 1.934.54-.497.743-1.236.955-1.912l.026-.087c-.036.377-.063.754-.084 1.131a18.95 18.95 0 01-.531 1.253c.187-.37.36-.749.523-1.13-.01.188-.014.378-.02.567-.085.29-.166.58-.253.869.086-.252.166-.505.25-.757-.01.369-.014.738-.01 1.107-.046.064-.084.132-.134.194.05-.056.088-.118.134-.177.002.245.002.49.01.734 0-.255.008-.51.014-.766.402-.529.676-1.15.88-1.782.228-.72.409-1.448.588-2.18.046-.192.088-.385.131-.578a24.67 24.67 0 00-.025 1.725 29.285 29.285 0 01-.437 1.769c.162-.475.307-.955.444-1.438.016.516.044 1.031.093 1.545l-.07.315c.026-.09.05-.183.074-.274.033.343.071.685.118 1.026-.039-.374-.069-.75-.09-1.125.101-.367.198-.734.29-1.103l-.19 1.808.307-2.277c.04-.163.076-.326.113-.49a27.09 27.09 0 00.275 3.27 27.012 27.012 0 01-.158-3.792c.018-.085.038-.169.055-.253.01.57.035 1.14.093 1.706a20.323 20.323 0 01-.023-2.055l.056-.283c.05 1.055.179 2.104.393 3.134.013.245.026.49.044.733-.007-.199-.009-.397-.012-.596.065.3.132.601.21.898a19.942 19.942 0 01-.216-1.196c-.005-.716.014-1.432.058-2.145.137 1.49.534 2.964 1.283 4.255-.78-1.451-1.124-3.096-1.164-4.724-.01-.373-.002-.746.018-1.118.113-1.016.548-3.016.58-3.013a11.657 11.657 0 00-.272 5.131c-.004.27-.01.54-.007.808.007-.228.02-.456.03-.685.15.822.386 1.625.712 2.39a11.29 11.29 0 01-.665-3.223c.099-1.418.28-2.83.544-4.224.013-.037.023-.075.036-.112-.008.163-.016.326-.02.488-.674 2.878-.308 5.96 1.003 8.559a12.285 12.285 0 01-.79-2.412 18.33 18.33 0 01-.127-1.513c.048.448.116.894.213 1.335-.204-1.112-.241-2.242-.175-3.366.206 1.75.659 3.466 1.355 5.076a18.142 18.142 0 01-1.265-6.088 18.5 18.5 0 01.113-.772c-.045 1.735.235 3.47.813 5.09.14.622.313 1.235.527 1.833a15.59 15.59 0 01-.366-1.407c.232.588.503 1.161.814 1.71a13.607 13.607 0 01-.964-2.478 15.862 15.862 0 01-.203-2.05c.336 1.146.78 2.251 1.26 3.336-.504-1.31-.966-2.643-1.236-4.013l-.031-.175c.002-.123.012-.245.017-.368.262 2.014.877 3.784 1.81 5.357a13.523 13.523 0 01-1.17-3.145 15.996 15.996 0 01-.21-4.934c.054.002.14.966.153 1.444a11.88 11.88 0 00.134 1.855c.032.271.068.542.111.812.174 1.236.449 2.456.832 3.64a21.627 21.627 0 01-.288-1.185c.11.381.227.76.359 1.133a20.259 20.259 0 01-.557-2.478c.28.856.658 1.678 1.128 2.443a11.55 11.55 0 01-1.26-3.407 20.324 20.324 0 01-.123-1.669 19.66 19.66 0 001.822 5.41 19.616 19.616 0 01-1.814-6.87c.003-.081.002-.162.007-.243a16.43 16.43 0 001.415 5.944 16.32 16.32 0 01-1.213-5.637c.05.196.102.391.155.586.015.387.043.773.092 1.157.12 1.336.445 2.65.982 3.87a12.146 12.146 0 01-.525-1.747c.323 1.08.775 2.117 1.36 3.071A13.006 13.006 0 0130.75 9.25a33.283 33.283 0 001.143 3.05 34.35 34.35 0 01-.37-1.077c.252.577.541 1.137.865 1.673a14.615 14.615 0 01-1.672-5.83l.001-.03h-.003a13.356 13.356 0 01-.02-.356c.008-.066.02-.13.03-.196a10.689 10.689 0 001.54 4.9c.311.615.675 1.2 1.103 1.734a9.875 9.875 0 01-.685-1.1c.087.121.177.242.27.36a10.208 10.208 0 01-.434-.663 10.179 10.179 0 01-.987-3.218c.017.038.036.074.053.111.316 1.359.863 2.67 1.702 3.779-.66-.941-1.112-2.005-1.4-3.11a9.871 9.871 0 002.152 3.247 9.656 9.656 0 01-1.476-2.17c.444.672.945 1.305 1.503 1.885-.71-.787-1.32-1.66-1.82-2.587-.05-.125-.098-.25-.143-.377a10.06 10.06 0 001.75 2.356c.126.179.253.355.39.524.156.196.315.389.486.572a9.959 9.959 0 01-.992-1.433l-.1-.179c-.033-.061-.06-.125-.094-.187a15.16 15.16 0 01-.256-.527c.387.592.811 1.137 1.28 1.636a11.841 11.841 0 01-1.717-2.794c-.149-.48-.27-.97-.347-1.464.107.26.223.517.35.768.05.102.105.2.158.301l.082.15c.143.259.3.51.468.752l.1.15.077.103a10.403 10.403 0 001.743 1.887 10.228 10.228 0 01-.917-.953c.063.063.122.13.188.19a8.088 8.088 0 01-.418-.467c-.54-.683-.994-1.43-1.352-2.22a8.716 8.716 0 01-.277-.778c.3.685.654 1.343 1.051 1.973.366.618.795 1.194 1.272 1.718.127.147.25.298.383.44-.05-.06-.097-.126-.147-.188.21.215.427.42.653.615a9.644 9.644 0 01-2.493-3.904 12.371 12.371 0 003.258 4.249c.025.021.062-.013.037-.037-1.502-1.402-2.668-3-3.444-4.788.154.318.331.624.53.91.086.124.181.238.273.356.221.405.468.795.74 1.164-.16-.255-.302-.52-.438-.787.506.586 1.074 1.113 1.654 1.619-.7-.672-1.374-1.378-1.916-2.175a9.977 9.977 0 01-.256-.652c.19.299.4.583.627.848.06.071.127.134.19.203a10.06 10.06 0 001.894 2.25 9.912 9.912 0 01-1.336-1.65c.18.22.366.437.556.648a14.322 14.322 0 001.667 1.904 14.286 14.286 0 01-1.11-1.298l.262.277a66.2 66.2 0 01-.458-.537c-.122-.167-.237-.34-.352-.513.382.327.775.64 1.168.951a29.67 29.67 0 01-1.414-1.332c-.075-.121-.146-.244-.217-.367.403.503.841.977 1.317 1.41a12.12 12.12 0 01-1.64-1.998l-.076-.153c.016.02.032.04.05.058.731.827 1.603 1.499 2.501 2.113-.857-.67-1.68-1.394-2.342-2.246a7.296 7.296 0 01-.835-1.345 14.238 14.238 0 01-.244-.703c.963 2.037 2.293 3.41 3.897 4.234a7.744 7.744 0 01-.783-.527 44.162 44.162 0 01-1.76-2.305 11.215 11.215 0 003.113 2.706 11.193 11.193 0 01-3.64-4.056c.407.709.91 1.362 1.46 1.95 1.12 1.192 2.438 2.148 3.756 3.08-.61-.47-1.217-.95-1.8-1.452.226.152.46.295.696.429-.61-.395-1.17-.856-1.685-1.362a11.74 11.74 0 001.553 1.174 11.644 11.644 0 01-1.178-.928c.23.138.472.253.73.333-.772-.313-1.373-.917-1.817-1.59l-.072-.117a7.587 7.587 0 002.526 1.616c-1.234-.575-2.28-1.5-3.094-2.679-.164-.342-.344-.738-.569-1.219 1.098 1.848 2.457 3.09 4.04 3.824-1.076-.573-2.015-1.382-2.82-2.443.91.977 1.94 1.836 3.074 2.529a14.438 14.438 0 01-1.623-1.26 5.974 5.974 0 002.39.99A5.893 5.893 0 0138.2 8.564c.12.066.242.131.367.188a5.581 5.581 0 01-1.17-.915 5.934 5.934 0 01-.906-1.276 3.849 3.849 0 001.568 1.453 8.36 8.36 0 001.904 1.052 8.25 8.25 0 01-1.56-.903c.216.082.437.15.663.188a3.508 3.508 0 01-.93-.392 8.679 8.679 0 01-.987-.913c.167.127.34.247.512.364a6.1 6.1 0 001.131.615c.4.157.828.25 1.254.24-.863-.03-1.63-.475-2.295-.982a10.26 10.26 0 01-.58-.484c.572.472 1.272.775 1.995.827-1.978-.304-2.918-2.27-2.65-2.35-2.935.33-5.319.153-5.904.11a35.894 35.894 0 01-2.92-.33 36.34 36.34 0 01-2.89-.535 43.238 43.238 0 01-5.647-1.634c-.919-.343-1.83-.712-2.704-1.154a11.223 11.223 0 01-1.276-.723C14.776.735 14.361.446 14.133 0c.202.665-2.734 2.08-2.778 2.1-.959.427-2.033.672-3.092.51 1.05.214 2.154.022 3.152-.366.38-.148.745-.329 1.103-.52-.072.046-.143.095-.216.141-.726.457-1.502.85-2.35 1.04.86-.121 1.683-.456 2.453-.859.218-.113.431-.233.643-.355a11.108 11.108 0 01-4.72 1.793c-2.24.297-4.58-.114-6.602-1.17a11.297 11.297 0 006.627 1.377c.724-.073 1.44-.227 2.138-.44-.63.28-1.28.516-1.947.69a12.735 12.735 0 01-3.647.399 8.287 8.287 0 01-1.347-.384C2.267 3.466 1.105 2.699 0 1.88c1.084.846 2.227 1.644 3.512 2.174.216.087.437.164.66.235a12.728 12.728 0 01-2.949-.62c1.091.407 2.24.654 3.405.75"/></svg>