<svg width="34" height="33" fill="none" xmlns="http://www.w3.org/2000/svg"><path d="M6.624 32.397a3.299 3.299 0 01-1.805-.565 1.886 1.886 0 01-.53-.524c-.667-1.001-.75-2.18-.224-3.15a2.905 2.905 0 012.559-1.518 3.3 3.3 0 011.805.566c.208.136.39.317.528.523.668 1.002.752 2.18.225 3.151a2.905 2.905 0 01-2.558 1.517zm0-4.15c-.474 0-.907.257-1.131.671-.143.264-.314.81.15 1.505a.266.266 0 00.07.07c.302.198.608.298.911.298.474 0 .907-.257 1.131-.671.143-.264.314-.81-.15-1.505a.273.273 0 00-.07-.07c-.302-.198-.609-.298-.911-.298zM25.665 32.397a3.299 3.299 0 01-1.805-.565 1.887 1.887 0 01-.53-.524c-.666-1.001-.75-2.18-.224-3.15a2.905 2.905 0 012.559-1.518 3.3 3.3 0 011.805.566c.208.136.391.317.529.523.668 1.002.751 2.18.225 3.151a2.906 2.906 0 01-2.559 1.517zm0-4.15c-.473 0-.907.257-1.131.671-.143.264-.314.81.15 1.505a.266.266 0 00.07.07c.302.198.609.298.911.298.474 0 .907-.257 1.132-.671.143-.264.313-.81-.15-1.505a.274.274 0 00-.07-.07c-.303-.198-.61-.298-.912-.298zM27.083 25.302H7.951c-.72 0-1.375-.33-1.8-.907a2.173 2.173 0 01-.322-1.976l1.57-4.864a.199.199 0 00.008-.088L5.638 4.195a.2.2 0 00-.114-.155L.99 1.911A1 1 0 01.508.574c.24-.501.844-.715 1.35-.477L6.39 2.226c.687.322 1.156.96 1.255 1.707l1.769 13.272a2.21 2.21 0 01-.087.964l-1.57 4.863a.192.192 0 00.03.18.196.196 0 00.164.082h19.131c.56 0 1.013.45 1.013 1.004 0 .555-.454 1.004-1.013 1.004z" fill="#014E6C"/><path d="M28.85 18.864h-.028l-19.336-.242a2.234 2.234 0 01-2.181-1.92L5.767 5.159a3.598 3.598 0 00-.12-.5c-.124-.423-.292-1 .099-1.517.161-.213.586-.582 1.381-.451l24.201 3.798a2.24 2.24 0 011.513.98 2.2 2.2 0 01.285 1.762l-2.12 7.987a2.227 2.227 0 01-2.155 1.646zM7.765 4.824l.01.072L9.314 16.44a.202.202 0 00.199.174l19.336.243.003 1.004v-1.004a.202.202 0 00.195-.15l2.12-7.986a.195.195 0 00-.025-.16.198.198 0 00-.137-.09L7.765 4.825z" fill="#014E6C"/></svg>