<svg width="34" height="34" fill="none" xmlns="http://www.w3.org/2000/svg"><path d="M17 1A15.862 15.862 0 005.736 5.728 16.24 16.24 0 001.667 21.52a.54.54 0 00.451.397.525.525 0 00.531-.279.542.542 0 00.04-.415 15.02 15.02 0 01-.564-4.098A15.14 15.14 0 016.482 6.483 14.788 14.788 0 0117 2.075c3.945 0 7.729 1.586 10.518 4.408a15.14 15.14 0 014.357 10.642 15.02 15.02 0 01-.563 4.098.543.543 0 00.174.579.53.53 0 00.847-.282 16.24 16.24 0 00-4.069-15.791A15.862 15.862 0 0017 1z" fill="#014E6C" stroke="#014E6C"/><path d="M20.102 19.06a6.95 6.95 0 003.158-3.292 7.063 7.063 0 00.46-4.564 6.997 6.997 0 00-2.437-3.87A6.856 6.856 0 0017 5.83c-1.555 0-3.063.53-4.283 1.506a6.997 6.997 0 00-2.437 3.869 7.063 7.063 0 00.46 4.564 6.95 6.95 0 003.158 3.291 15.318 15.318 0 00-8.79 5.36 2.735 2.735 0 00.078 3.527 15.941 15.941 0 005.352 3.918 15.775 15.775 0 0012.924 0 15.941 15.941 0 005.352-3.918 2.735 2.735 0 00.079-3.528 15.318 15.318 0 00-8.791-5.358zm-8.946-6.235c0-1.17.343-2.313.985-3.285a5.86 5.86 0 012.623-2.177 5.78 5.78 0 013.376-.337 5.823 5.823 0 012.992 1.618 5.934 5.934 0 011.6 3.027 5.977 5.977 0 01-.333 3.417 5.898 5.898 0 01-2.152 2.653c-.961.65-2.091.997-3.247.997a5.816 5.816 0 01-4.13-1.734 5.954 5.954 0 01-1.714-4.179zm16.87 14.4a14.88 14.88 0 01-4.995 3.657 14.725 14.725 0 01-12.062 0 14.88 14.88 0 01-4.995-3.657 1.645 1.645 0 01-.047-2.123 14.366 14.366 0 014.95-3.9 14.202 14.202 0 0112.245 0 14.367 14.367 0 014.95 3.9 1.647 1.647 0 01-.046 2.123z" fill="#014E6C" stroke="#014E6C"/></svg>