<svg width="84" height="74" fill="none" xmlns="http://www.w3.org/2000/svg"><path d="M68.049 34.351v-.75h-.75v.75h.75zm0 8.608h-.75v.737l.737.013.013-.75zM39.513 22.74l-.577.479.225.271h.352v-.75zM22.807 2.588l.577-.479-.577.479zm-6.185-.58l.479.578-.479-.577zm-.578 6.185l.577-.479-.577.48zm12.06 14.547v.75h1.595l-1.018-1.229-.578.479zM6.244 34.351h.75v-.75h-.75v.75zM58.18 69.006l.488-.57-.21-.18h-.278v.75zM16.94 2.393l-.478-.577.478.577zm-.511 5.482l.577-.479-.577.479zm5.993-4.969l.577-.479-.577.479zm18.19 21.942l.578-.478-.578.478zm.873 2.847l-.746-.07.746.07zM40.1 30.33l.478.578v-.001l-.478-.577zm-5.48-.513l-.578.479.577-.479zm-6.102-6.577l.577-.479-.225-.271h-.352v.75zm5.716 6.896l.578-.48-.578.48zm2.973 1.565l.073-.747h-.003l-.07.747zm3.211-.986l-.479-.578.479.578zm1.565-2.974l-.746-.07.746.07zm-.986-3.211l-.577.479.577-.479zm-1.07-1.29v-.75h-1.595l1.018 1.229.578-.479zM6.744 34.351v-.75h-.75v.75h.75zm60.806 0h.75v-.75h-.75v.75zm0 8.608l.012.75.738-.013v-.737h-.75zM57.63 68.506v.75h1.883l-1.367-1.295-.516.545zm17.432-16.194l-.502.557.502-.557zm-1.171-.795l-.304.686h.002l.302-.686zm2.17 2.863l-.557-.502.557.502zM65.715 65.866l-.557-.502-.004.004.56.498zm-.2.083l-.038.749h.039v-.75zm-.188-.104l.61-.436-.003-.004-.607.44zm-5.825-8.03l-.607.44.607-.44zm1.21-1.952l.44.607h.002l-.441-.607zm2.231-.546l-.607.44.607-.44zm2.922 4.03l-.607.44.544.75.62-.689-.557-.502zm7.037-7.812l.558.502.003-.004-.56-.498zM65.55 65.302l-.607.44.544.75.62-.688-.557-.502zm-5.638-7.77l-.73.175.035.145.088.12.607-.44zm15.778-3.486l.558.502.108-.12.049-.153-.715-.23zm-.962-1.363l.503-.557-.502.557zm-1.463-.806l-.287-.693-.157.065-.114.126.558.502zM66.03 59.91l-.557-.502-.002.002.56.5zm-.199.083l-.039.749.024.001h.023l-.008-.75zm-.188-.104l.61-.436-.003-.004-.607.44zm-3.104-4.278l.607-.44-.095-.131-.14-.08-.372.651zm-1.533.656l-.44-.607.44.607zm6.293-21.916v8.608h1.5V34.35h-1.5zm1.687-.75h-.937v1.5h.937v-1.5zm3.555-3.554a3.56 3.56 0 01-3.555 3.554v1.5a5.059 5.059 0 005.055-5.054h-1.5zm0-3.002v3.002h1.5v-3.002h-1.5zm-3.555-3.555a3.559 3.559 0 013.555 3.555h1.5a5.059 5.059 0 00-5.055-5.055v1.5zm-29.473 0h29.473v-1.5H39.513v1.5zM22.23 3.066L38.936 23.22l1.154-.958L23.384 2.11l-1.155.957zm-5.128-.48a3.648 3.648 0 015.129.48l1.154-.957a5.148 5.148 0 00-7.24-.678l.957 1.155zm-.48 5.128a3.646 3.646 0 01.48-5.128l-.957-1.155a5.146 5.146 0 00-.677 7.24l1.154-.957zm12.06 14.547L16.62 7.714l-1.154.958 12.06 14.547 1.154-.958zM5.305 23.49h22.799v-1.5h-22.8v1.5zM1.75 27.045a3.559 3.559 0 013.555-3.555v-1.5A5.059 5.059 0 00.25 27.045h1.5zm0 3.002v-3.002H.25v3.002h1.5zM5.305 33.6a3.56 3.56 0 01-3.555-3.554H.25A5.06 5.06 0 005.305 35.1v-1.5zm.938 0h-.938v1.5h.938v-1.5zm.75 31.403V34.35h-1.5v30.653h1.5zm3.252 3.252a3.256 3.256 0 01-3.252-3.252h-1.5a4.756 4.756 0 004.752 4.752v-1.5zm47.935 0H10.245v1.5H58.18v-1.5zm9.619 3.569c-3.484 0-6.67-1.28-9.13-3.389l-.977 1.14A15.489 15.489 0 0067.8 73.324v-1.5zM81.863 57.76c0 7.755-6.31 14.065-14.064 14.065v1.5c8.583 0 15.564-6.981 15.564-15.565h-1.5zM68.036 43.71c7.645.128 13.827 6.378 13.827 14.051h1.5c0-8.495-6.841-15.41-15.302-15.551l-.025 1.5zM16.462 1.816a4.647 4.647 0 00-.61 6.537l1.154-.957a3.147 3.147 0 01.413-4.425l-.957-1.155zM19.42.75c-1.043 0-2.094.35-2.959 1.066l.957 1.155a3.128 3.128 0 012.002-.721V.75zm3.578 1.677A4.639 4.639 0 0019.421.75v1.5c.907 0 1.804.388 2.424 1.135l1.154-.958zM41.19 24.37L23 2.427l-1.154.958 18.19 21.942 1.155-.957zm1.043 3.395a4.614 4.614 0 00-1.042-3.395l-1.155.957c.532.642.783 1.455.704 2.298l1.493.14zm-1.654 3.142a4.614 4.614 0 001.654-3.142l-1.493-.14a3.114 3.114 0 01-1.118 2.128l.957 1.154zm-6.536-.611a4.65 4.65 0 006.536.612l-.957-1.156a3.15 3.15 0 01-4.425-.414l-1.154.958zM15.852 8.353l18.19 21.943 1.154-.958-18.19-21.942-1.155.957zM.75 30.047A4.56 4.56 0 005.305 34.6v-1.5a3.06 3.06 0 01-3.055-3.054H.75zm0-3.002v3.002h1.5v-3.002H.75zm4.555-4.555A4.56 4.56 0 00.75 27.045h1.5a3.06 3.06 0 013.055-3.055v-1.5zm23.213 0H5.305v1.5h23.213v-1.5zm6.294 7.167l-5.717-6.896-1.154.958 5.716 6.895 1.155-.957zm2.465 1.297a3.609 3.609 0 01-2.465-1.297l-1.155.957a5.109 5.109 0 003.48 1.834l.14-1.494zm.35.016c-.118 0-.234-.005-.347-.016l-.145 1.493c.167.017.332.023.493.023v-1.5zm2.312-.833a3.596 3.596 0 01-2.311.833v1.5c1.195 0 2.343-.41 3.269-1.178l-.958-1.155zm1.298-2.466a3.609 3.609 0 01-1.298 2.466l.958 1.155a5.11 5.11 0 001.833-3.481l-1.493-.14zm-.817-2.662c.618.745.908 1.688.817 2.662l1.493.14a5.105 5.105 0 00-1.156-3.76l-1.154.958zm-1.07-1.29l1.07 1.29 1.154-.958-1.069-1.29-1.155.958zm29.636-1.229H39.928v1.5h29.058v-1.5zm4.555 4.555a4.56 4.56 0 00-4.555-4.555v1.5a3.06 3.06 0 013.055 3.055h1.5zm0 3.002v-3.002h-1.5v3.002h1.5zM68.986 34.6a4.56 4.56 0 004.555-4.554h-1.5a3.06 3.06 0 01-3.055 3.054v1.5zm-63.681 0h63.681v-1.5H5.305v1.5zm.688 30.403a4.256 4.256 0 004.252 4.252v-1.5a2.756 2.756 0 01-2.752-2.752h-1.5zm0-30.653v30.653h1.5V34.35h-1.5zm61.556-.75H6.743v1.5H67.55v-1.5zm.75 9.358V34.35h-1.5v8.608h1.5zM53.734 57.76c0-7.673 6.182-13.923 13.827-14.051l-.025-1.5c-8.46.142-15.302 7.056-15.302 15.551h1.5zm4.412 10.201c-2.712-2.568-4.412-6.186-4.412-10.2h-1.5c0 4.447 1.885 8.453 4.88 11.29l1.032-1.09zm-47.9 1.295H57.63v-1.5H10.245v1.5zM52.733 57.76c0 8.306 6.758 15.064 15.065 15.064v-1.5c-7.479 0-13.565-6.086-13.565-13.565h-1.5zM67.8 42.696c-8.307 0-15.065 6.758-15.065 15.065h1.5c0-7.479 6.087-13.565 13.565-13.565v-1.5zm15.064 15.065c0-8.307-6.757-15.065-15.064-15.065v1.5c7.478 0 13.564 6.086 13.564 13.565h1.5zM67.8 72.825c8.307 0 15.064-6.758 15.064-15.065h-1.5c0 7.479-6.086 13.565-13.564 13.565v1.5zM38.469 26.72c0 .73-.594 1.325-1.324 1.325v1.5a2.827 2.827 0 002.825-2.825h-1.5zm-1.324-1.323c.73 0 1.325.595 1.325 1.323h1.5a2.826 2.826 0 00-2.825-2.823v1.5zm-1.323 1.323c0-.729.594-1.323 1.323-1.323v-1.5a2.825 2.825 0 00-2.823 2.823h1.5zm1.323 1.325a1.326 1.326 0 01-1.323-1.325h-1.5a2.826 2.826 0 002.823 2.825v-1.5zm2.325-1.325a2.326 2.326 0 00-2.325-2.323v1.5c.455 0 .825.37.825.823h1.5zm-2.325 2.325a2.326 2.326 0 002.325-2.325h-1.5c0 .454-.37.825-.825.825v1.5zm-2.323-2.325a2.326 2.326 0 002.323 2.325v-1.5a.826.826 0 01-.823-.825h-1.5zm2.323-2.323a2.325 2.325 0 00-2.323 2.323h1.5c0-.453.37-.823.823-.823v-1.5zm38.42 27.357c-.432-.389-.914-.723-1.372-.924l-.604 1.373c.274.12.623.351.971.665l1.005-1.114zm1.054 3.127c.273-.304.339-.672.308-.988-.028-.3-.143-.58-.271-.816-.259-.475-.673-.946-1.092-1.323l-1.003 1.115c.341.307.627.648.777.925.077.14.094.22.096.243.001.006-.004-.078.07-.16l1.115 1.004zM66.272 66.368L76.62 54.882l-1.115-1.004-10.346 11.486 1.114 1.004zm-.743.33a1 1 0 00.746-.334l-1.12-.996a.5.5 0 01.374-.17v1.5zm-.013 0h.013v-1.5h-.013v1.5zm-.8-.417c.177.247.456.401.76.417l.079-1.498a.502.502 0 01.382.21l-1.22.871zm-5.821-8.027l5.825 8.032 1.214-.88-5.825-8.032-1.214.88zm1.378-2.998c-.457.33-.918.755-1.225 1.2a2.173 2.173 0 00-.356.784c-.064.311-.037.684.203 1.014l1.214-.88c.065.089.051.172.053.165.004-.022.03-.1.12-.23.18-.26.499-.569.87-.839l-.88-1.214zm3.278-.378a1.266 1.266 0 00-.902-.51 2.177 2.177 0 00-.855.096c-.519.154-1.066.46-1.522.793l.882 1.213c.371-.27.764-.478 1.066-.568a.751.751 0 01.258-.043c.006 0-.077-.013-.142-.102l1.215-.88zm2.921 4.028l-2.921-4.03-1.215.881 2.922 4.03 1.214-.88zm5.873-7.873l-7.037 7.811 1.114 1.004 7.038-7.811-1.115-1.004zm1.85-.202c-.365-.16-.716-.24-1.05-.202-.354.04-.623.204-.803.408l1.121.996a.289.289 0 01-.08.062.211.211 0 01-.07.025c-.017.002.06-.012.274.083l.607-1.372zm-8.038 14.031l-5.638-7.77-1.214.88 5.638 7.77 1.214-.88zm8.976-11.318L64.993 64.8l1.114 1.003 10.14-11.256-1.114-1.004zm-.907-.304c.336.303.537.564.644.74.055.088.08.145.087.166.005.011 0 0-.006-.03a.672.672 0 01.025-.299l1.429.458a.875.875 0 00.024-.417 1.321 1.321 0 00-.063-.229 2.487 2.487 0 00-.218-.436 5.009 5.009 0 00-.917-1.067l-1.005 1.114zm-.675-.67c-.148.061-.267.05-.27.05-.03-.002-.04-.006-.028-.003.022.006.082.024.175.068.185.086.465.255.799.556l1.003-1.115a4.875 4.875 0 00-1.165-.8 2.462 2.462 0 00-.462-.167 1.359 1.359 0 00-.233-.037.887.887 0 00-.392.062l.573 1.386zm-6.963 7.842l7.234-8.033-1.115-1.004-7.234 8.033 1.115 1.004zm-.749.33a.996.996 0 00.75-.332l-1.118-1a.516.516 0 01.352-.167l.016 1.5zm-.807-.417c.176.247.456.401.76.417l.078-1.498a.503.503 0 01.383.21l-1.22.871zm-3.1-4.274l3.103 4.279 1.215-.881-3.104-4.278-1.214.88zm.535.298c-.009 0-.036 0-.076-.006a.668.668 0 01-.224-.08l.744-1.303c-.2-.114-.401-.11-.444-.11v1.5zm-1.021.526c.312-.227.575-.363.767-.441.21-.086.293-.085.254-.085v-1.5c-.24 0-.53.077-.82.196-.311.126-.679.323-1.081.615l.88 1.215zm-.804.482c.039.164.005.285.002.296-.008.033-.016.047-.011.037a.944.944 0 01.099-.151c.123-.161.348-.399.714-.665l-.88-1.214c-.47.341-.805.679-1.027.97-.11.143-.2.287-.264.423a1.295 1.295 0 00-.085.233.88.88 0 00-.007.42l1.459-.349z" fill="#fff"/></svg>